<svg version="1.1" viewBox="0 0 48 48" xmlns="http://www.w3.org/2000/svg">
 <g fill="none" stroke="#000" stroke-linecap="round" stroke-linejoin="round">
  <path d="m14.858 32.165c-3.464 2-6.845-4.13-3.5-6.062zm8.196 2.196c1 1.732-2.464 3.732-3.464 2l-1.75-3.031 3.464-2zm-6.464-3.196-3.5-6.062c4.763-2.75 8.825-9.714 9.374-11.763 0.366-1.366 1.732-1 2.232-0.134m-8.106 17.959c4.763-2.75 12.825-2.786 14.874-2.237 1.366 0.366 1.732-1 1.232-1.866l-8-13.856"/>
  <path d="m29.652 16.236a3 3 0 0 1 3.374 1.398 3 3 0 0 1-0.476 3.622m-2.555-8.873a7 7 0 0 1 6.063 3.5 7 7 0 0 1 0 7" paint-order="stroke fill markers"/>
  <circle cx="24" cy="24" r="21.5" style="paint-order:stroke fill markers"/>
 </g>
</svg>
