<svg version="1.1" viewBox="0 0 48 48" xml:space="preserve" xmlns="http://www.w3.org/2000/svg"><g fill="none" stroke="#000" stroke-linecap="round" stroke-linejoin="round"><path d="m36.124 31a14 14 0 0 1-14.555 6.7873 14 14 0 0 1-11.356-11.356 14 14 0 0 1 6.7873-14.555" style="paint-order:stroke fill markers"/><path d="m27.623 10.477a14 14 0 0 1 9.8995 9.8995" style="paint-order:stroke fill markers"/><path d="m32.5 24a8.5 8.5 0 0 1-8.5 8.5 8.5 8.5 0 0 1-8.5-8.5 8.5 8.5 0 0 1 8.5-8.5 8.5 8.5 0 0 1 8.5 8.5z" style="paint-order:stroke fill markers"/><path d="m23 22.232a2 2 0 0 1-0.93185-2.2497 2 2 0 0 1 1.9319-1.4824 2 2 0 0 1 1.9319 1.4824 2 2 0 0 1-0.93185 2.2497" style="paint-order:stroke fill markers"/><path d="m23 22.232-1.5 6c-0.25836 0.96421 1.4991 1.5 2.4996 1.5s2.7585-0.53677 2.5004-1.5l-1.5-5.9999" stroke-width="1"/><path d="m10.919 37.081a18.5 18.5 0 0 1-4.0103-20.161 18.5 18.5 0 0 1 17.092-11.42" style="paint-order:stroke fill markers"/><path d="m41.87 19.212a18.5 18.5 0 0 1-3.1926 16.05 18.5 18.5 0 0 1-14.677 7.2379" style="paint-order:stroke fill markers"/></g></svg>
