<svg version="1.1" viewBox="0 0 48 48" xml:space="preserve" xmlns="http://www.w3.org/2000/svg"><g fill="none" stroke="#000" stroke-linecap="round" stroke-linejoin="round"><path d="m13.5 21.5v-7c0-2.77 2.23-5 5-5h19c2.77 0 5 2.23 5 5v19c0 2.77-2.23 5-5 5h-19c-2.77 0-5-2.23-5-5v-6" style="paint-order:stroke fill markers"/><g stroke-width="1px"><path d="m14.5 24.5c-0.25-1-3.7795-4-5.75-4-2 0-3.25 2.5-3.25 4s1.25 4 3.25 4 5.75-3 5.75-4z"/><path d="m13.5 21.5h11"/><path d="m13.5 27.5h19.5"/><path d="m33 27.5v-11h-8.5v5"/><path d="m35.5 38.5v-5.9996l-14-3.54e-4v6"/><path d="m27.5 16.5v2.5"/><path d="m30 16.5v1.5"/></g></g></svg>
