<svg version="1.1" viewBox="0 0 48 48" xml:space="preserve" xmlns="http://www.w3.org/2000/svg"><g fill="none" stroke="#000"><g stroke-linecap="round" stroke-linejoin="round"><path d="m14.341 12.912a10 10 0 0 1 9.6593-7.4118 10 10 0 0 1 9.6593 7.4118" style="paint-order:stroke fill markers"/><path d="m24 24a12 12 0 0 1-12.667 8.2261" style="paint-order:stroke fill markers"/><path transform="scale(-1,1)" d="m-24 24a12 12 0 0 1-12.667 8.2261" style="paint-order:stroke fill markers"/><circle cx="24" cy="16" r="7.5" style="paint-order:stroke fill markers"/><path d="m36.557 27.135a13 13 0 0 1-5.1005 14.014 13 13 0 0 1-14.913 1e-6 13 13 0 0 1-5.1005-14.014" style="paint-order:stroke fill markers"/></g><path d="m36.557 27.135-2.8978-14.224" stroke-width="1px"/><path d="m14.341 12.912-2.8978 14.224" stroke-width="1px"/><g stroke-linecap="round" stroke-linejoin="round"><g stroke-width="1px"><path d="m17.165 12.912c3.2546 0 4.3012-2.4702 5.3346-4.2601 1.1173 1.9352 4.0301 4.2601 8.3346 4.2601"/><path d="m18.5 15.5c1.4115-1.4115 2.5874-1.4126 4 0"/><path d="m22.5 21c0.86914 0.5018 2.1313 0.50154 3 0"/><path d="m25.5 15.5c1.4115-1.4115 2.5874-1.4126 4 0"/></g><circle cx="20" cy="18.5" r="1" style="paint-order:stroke fill markers"/><circle cx="28" cy="18.5" r="1" style="paint-order:stroke fill markers"/></g></g></svg>
