<svg version="1.1" viewBox="0 0 48 48" xml:space="preserve" xmlns="http://www.w3.org/2000/svg"><g fill="none" stroke="#000" stroke-linecap="round" stroke-linejoin="round"><path d="m15 29.5v-5c0-1 1-2 2-2h14c1 0 2 1 2 2v9c0 1-1 2-2 2h-9.5" stroke-width="1px"/><path d="m19 22.5v-4.5c0-3 2-5 5-5s5 2 5 5v4.5" stroke-width="1px"/><path d="m40.887 19.341a18 18 0 0 1-5.9373 18.548 18 18 0 0 1-19.34 2.289" style="paint-order:stroke fill markers"/><path d="m9.7111 35.57a18 18 0 0 1-2.8209-18.507 18 18 0 0 1 15.145-11.004 18 18 0 0 1 16.729 8.4018" style="paint-order:stroke fill markers"/><circle cx="14" cy="36.5" r="4" style="paint-order:stroke fill markers"/><circle cx="40" cy="17" r="2.5" style="paint-order:stroke fill markers"/><path d="m38 18.5-3.525 2.5179m-11.847 8.4621-5.6281 4.02" stroke-width="1px"/></g></svg>
