<svg version="1.1" viewBox="0 0 48 48" xml:space="preserve" xmlns="http://www.w3.org/2000/svg"><g fill="none" stroke="#000" stroke-width="1px"><g stroke-linecap="round"><path d="m5.5 6h9v36.5h-9v-36.5" stroke-linejoin="round"/><path d="m14.5 43"/><path d="m22 42.5v-32.5h-7.5" stroke-linejoin="round"/><path d="m22 42.5h-7.5" stroke-linejoin="round"/><path d="m5.5 8h9"/><path d="m5.5 40.5h9"/><path d="m27.5 5.5 4.5 36" stroke-linejoin="round"/><path d="m22.6 6.5 4.5 36" stroke-linejoin="round"/></g><g><path d="m27.5 5.5-4.9 1"/><path d="m27.5 7.4798-4.9 1"/><path d="m27.1 42.5 4.9-1"/><path d="m32 39.52-4.9 1"/></g><g stroke-linecap="round" stroke-linejoin="round"><path d="m16 13.5h4.5"/><path d="m16 39.5h4.5"/><path d="m37.5 17 5 24"/><path d="m30.113 18.5 5 24"/></g><path d="M 30.113,18.5 37.5,17"/><path d="M 35.113,42.5 42.5,41"/></g></svg>
