<svg version="1.1" viewBox="0 0 48 48" xml:space="preserve" xmlns="http://www.w3.org/2000/svg"><g fill="none" stroke="#000" stroke-linecap="round" stroke-linejoin="round"><path d="m42.499 32.5h-9.9283m-1.7505 0h-24.773c-0.99998-3.4999 0.45199-5.9999 4.7019-6.9999-0.89355-3.3348 2.25-6.4999 6.2499-3.9999 2-7.4999 13.5-8.9998 16.5 0.99998"/><path d="m35.499 22.5c5.9999 0 7.9999 5.9999 6.9999 9.9998"/><path d="m33.499 22.5c-1.3397 4.9999-1.3397 4.9999-18 5.4999 8.4998 0.06348 16.66-0.49999 15.32 4.4999"/><path d="m35.499 22.5c-0.79474 2.5-1.5895 4.9999 3.6242 5.4999-5.2137-0.49999-5.7579 2-6.5527 4.4999"/></g></svg>
