<svg version="1.1" viewBox="0 0 48 48" xml:space="preserve" xmlns="http://www.w3.org/2000/svg"><g fill="none" stroke="#000" stroke-linecap="round" stroke-linejoin="round"><path transform="matrix(.83849 0 0 .83849 3.8762 3.8762)" d="m36.224 45.173c-1.6939 0.97795-22.755 0.97794-24.449-1e-6 -1.6939-0.97795-12.224-19.217-12.224-21.173 9e-8 -1.9559 10.53-20.195 12.224-21.173s22.755-0.97795 24.449 1.2e-6c1.6939 0.97795 12.224 19.217 12.224 21.173s-10.53 20.195-12.224 21.173z" stroke-width="1" style="paint-order:stroke fill markers"/><path d="m23.5 21.5v5m-2 2h-5c-1.108 0-2-0.892-2-2v-5c0-1.108 0.892-2 2-2h5" style="paint-order:stroke fill markers"/><path d="m21.5 19.5v-5c0-1.108 0.892-2 2-2h5c1.108 0 2 0.892 2 2v5c0 1.108-0.892 2-2 2h-5" style="paint-order:stroke fill markers"/><path d="m23.5 26.5h5c1.108 0 2 0.892 2 2v5c0 1.108-0.892 2-2 2h-5c-1.108 0-2-0.892-2-2v-5" style="paint-order:stroke fill markers"/></g></svg>
