<svg viewBox="0 0 48 48" xmlns="http://www.w3.org/2000/svg"><g stroke="#000" stroke-linecap="round" stroke-linejoin="round" fill="none"><path class="prefix__st2" d="M9.534 5.5h19.205l9.704 9.01v11.067c0 11.324-9.26 14.248-14.323 16.923-5.545-2.554-14.202-5.636-14.338-16.923z"/><path d="M22.326 25.767a3.5 3.5 0 01-1.753-3.937 3.5 3.5 0 013.396-2.653 3.5 3.5 0 013.396 2.653 3.5 3.5 0 01-1.753 3.937M25.577 25.786l1.439 7.603h-6.1l1.439-7.607M20.48 22.948H9.74M27.459 22.948h11.007M24.121 19.18V5.5M24.121 33.389V42.5M28.739 5.5v9.01M38.443 14.511h-9.704"/></g></svg>