<svg version="1.1" viewBox="0 0 48 48" xml:space="preserve" xmlns="http://www.w3.org/2000/svg"><defs><style>.a{fill:none;stroke:#000;stroke-linecap:round;stroke-linejoin:round;}</style></defs><g stroke="#000" stroke-linecap="round" stroke-linejoin="round"><path class="a" d="m18.925 13.102a7.8539 7.8539 0 0 0-7.8539 7.8539c0 6.1499 5.9999 13.566 7.5659 15.378a0.48 0.48 0 0 0 0.72599 0c1.53-1.8 7.4159-9.2279 7.4159-15.378a7.8539 7.8539 0 0 0-7.8539-7.8539zm0 10.8a2.94 2.94 0 1 1 2.934-2.94 2.934 2.934 0 0 1-2.934 2.934z"/><g fill="none"><g><circle cx="19" cy="40.5" r="2" style="paint-order:stroke fill markers"/><circle cx="34" cy="29.5" r="2" style="paint-order:stroke fill markers"/><circle cx="34" cy="16.5" r="2" style="paint-order:stroke fill markers"/><circle cx="19" cy="7.5" r="2" style="paint-order:stroke fill markers"/></g><g stroke-width="1px"><path d="m34 14.5-13.188-6.1542"/><path d="m34 31.5-13.285 7.971"/><path d="m34 27.5v-9"/></g></g></g></svg>
