<svg version="1.1" viewBox="0 0 48 48" xml:space="preserve" xmlns="http://www.w3.org/2000/svg"><defs><style>.a{fill:none;stroke:#000;stroke-linecap:round;stroke-linejoin:round;}</style></defs><path class="a" d="m30.167 40.837a3.0972 3.0972 0 0 1-6.1944 0v-17.272"/><path class="a" d="m4.4725 23.565c0-10.77 8.7304-19.5 19.5-19.5s19.5 8.7304 19.5 19.5"/><g fill="none" stroke="#000" stroke-linecap="round" stroke-linejoin="round"><path d="m4.4725 23.565a3.25 2.5 0 0 1 3.25-2.5 3.25 2.5 0 0 1 3.25 2.5" style="paint-order:stroke fill markers"/><path d="m10.973 23.565a3.25 2.5 0 0 1 3.25-2.5 3.25 2.5 0 0 1 3.25 2.5" style="paint-order:stroke fill markers"/><path d="m17.473 23.565a3.25 2.5 0 0 1 3.25-2.5 3.25 2.5 0 0 1 3.25 2.5" style="paint-order:stroke fill markers"/><path d="m23.973 23.565a3.25 2.5 0 0 1 3.25-2.5 3.25 2.5 0 0 1 3.25 2.5" style="paint-order:stroke fill markers"/><path d="m30.473 23.565a3.25 2.5 0 0 1 3.25-2.5 3.25 2.5 0 0 1 3.25 2.5" style="paint-order:stroke fill markers"/><path d="m36.973 23.565a3.25 2.5 0 0 1 3.25-2.5 3.25 2.5 0 0 1 3.25 2.5" style="paint-order:stroke fill markers"/></g></svg>
