<svg version="1.1" viewBox="0 0 48 48" xml:space="preserve" xmlns="http://www.w3.org/2000/svg"><g fill="none" stroke="#000"><g stroke-linecap="round" stroke-linejoin="round"><path d="m7 22.5a17 17 0 0 1 17-17 17 17 0 0 1 17 17 17 17 0 0 1-17 17" style="paint-order:stroke fill markers"/><path d="m31.071 29.571a10 10 0 0 1-12.627 1.2436 10 10 0 0 1-3.6831-12.142 10 10 0 0 1 11.19-5.981 10 10 0 0 1 8.0491 9.8079" style="paint-order:stroke fill markers"/><path d="m7 22.5v20c1.3009-2.1373 3.5627-3 6.0622-3" stroke-width="1px"/></g><path d="m24 39.5h-10.938" stroke-width="1px"/><path d="m14 22.5h20" stroke-linecap="round" stroke-linejoin="round" stroke-width="1px"/></g></svg>
