<svg version="1.1" viewBox="0 0 48 48" xml:space="preserve" xmlns="http://www.w3.org/2000/svg"><g fill="none" stroke="#000" stroke-linecap="round" stroke-linejoin="round"><g stroke-width="1px"><path d="m4.5 22v23.5c1.3009-2.1373 5.0005-4 7.5-4"/><path d="m24 41.5h-12"/><path d="m12.5 22.5h23"/></g><path d="m4.5 22c0-10.77 8.7304-19.5 19.5-19.5s19.5 8.7304 19.5 19.5-8.7304 19.5-19.5 19.5" style="paint-order:stroke fill markers"/><path d="m32.132 30.632a11.5 11.5 0 0 1-14.521 1.4302 11.5 11.5 0 0 1-4.2356-13.963 11.5 11.5 0 0 1 12.868-6.8782 11.5 11.5 0 0 1 9.2565 11.279" style="paint-order:stroke fill markers"/></g></svg>
