<svg version="1.1" viewBox="0 0 48 48" xmlns="http://www.w3.org/2000/svg">
 <g fill="none" stroke="#000" stroke-linecap="round" stroke-linejoin="round">
  <path d="m33.727 24.139s-2.9182 0.33227-4.4207 0.33227c-1.1991 0-2.976-0.05774-3.7561-0.33227-0.28058 0.97035-3.2193 1.0185-3.7995 1.0185-1.3724 0-0.9607-0.08666-2.2103-0.16613-1.2496-0.07945-5.9231 3.5033-6.7538 4.6735-0.83068 1.1702-0.33228 4.0017-0.33228 5.2947-0.24612 2.4395-0.11592 4.7127 0.57788 7.0355-0.66454 0.16613-3.5828-5.2947-4.2545-7.6278-0.67177-2.3331-1.0402-4.9624-0.87402-6.4649 0.16613-1.5024 8.8509-3.8378 8.798-4.464-0.02148-0.25424-1.0243-0.59773-1.6427-1.1565-0.55334-0.49997-2.777-0.32244-2.777-0.32244m2.777 0.32244c0.41684-1.5557 3.5569-1.4294 4.3081-2.1012 0.75122-0.66455 1.6686-3.2144 1.8347-4.2979 0.16614-1.0835-1.6686-2.3331-2.167-3.171-0.4984-0.83068 1.0835-1.4158 4.9191-3.0049 3.8356-1.5891 16.014-5.0852 16.18-4.6735 0.16613 0.41173-4.0017 2.167-6.9199 3.2505-2.9182 1.0835-7.6711 3.171-7.6711 3.7561 0 0.5851 0.25282 1.0402 0.08666 2.3765-0.16613 1.3363-0.18781 1.9575-0.49841 2.8388-0.20947 0.58509-0.41894 1.9575 0 3.2144 0.33228 1.004 1.4158 1.748 1.9214 1.9214 0.41895 0.02892 1.5675 0.06504 2.8387 0 1.5819-0.08666 3.8356 0.49841 3.8356 0.49841"/>
  <path d="m29.892 22.391c-1.0953 0.75774-1.0521 1.4342-0.58509 2.0803" stroke-width="1px"/>
 </g>
</svg>
