<svg version="1.1" viewBox="0 0 48 48" xml:space="preserve" xmlns="http://www.w3.org/2000/svg"><g fill="none" stroke="#000" stroke-linecap="round" stroke-linejoin="round"><g stroke-width="1px"><path d="m15.5 29c-6 0-9.6268-5.6585-9.961-9s1.461-8 6.961-8"/><path d="m14.971 26s-5.9706-1-6.4706-6 4.5-5 4.5-5"/><path d="m28 13.5v5"/><path d="m12.5 12s10 1.5 15.5 1.5 12.5-1.5 13.5-1c0.5 0.5 1 1 1 4s-6 19.5-9 19.5h-11c-2.1118 0-6-3.5-7-7m-0.52941-3c-1.4706-3.5-1.4706-7-1.9706-11"/></g><g transform="rotate(24 31.205 26.557)"><rect x="21.5" y="20.5" width="11" height="11" rx="2" ry="2" style="paint-order:stroke fill markers"/><g stroke-width="1px"><path d="m28 24h-2"/><path d="m25 20.5v2.5"/><path d="m25 25v2.5"/></g><circle cx="25" cy="28.5" r="1" style="paint-order:stroke fill markers"/><circle cx="25" cy="24" r="1" style="paint-order:stroke fill markers"/><path d="m28 24a1 1 0 0 1 1 1" style="paint-order:stroke fill markers"/><circle cx="29" cy="28.5" r="1" style="paint-order:stroke fill markers"/><path d="m29 25v2.5" stroke-width="1px"/></g></g></svg>
