<svg version="1.1" viewBox="0 0 48 48" xmlns="http://www.w3.org/2000/svg">
 <g fill="none" stroke="#000" stroke-linecap="round">
  <g stroke-linejoin="round">
   <path d="m11.5 5.5h25v25h-25z" paint-order="stroke fill markers"/>
   <path d="M26 17.999a6 6 0 01-4.83 5.885 6 6 0 01-6.713-3.589 6 6 0 012.21-7.285 6 6 0 017.576.746" paint-order="stroke fill markers"/>
   <path d="m26 17.999h-5m6-6.499h6.364"/>
   <path d="m31.916 22.43a2 2 0 0 1-2 2 2 2 0 0 1-2-2 2 2 0 0 1 2-2 2 2 0 0 1 2 2z" style="paint-order:stroke fill markers"/>
   <g>
    <path d="M35.74 35.68v3.6c0 .66-.54 1.2-1.2 1.2-.36 0-.66-.12-.84-.36"/>
    <path d="M34.54 35.62c.66 0 1.2.54 1.2 1.2v.78c0 .66-.54 1.2-1.2 1.2s-1.2-.54-1.2-1.2v-.78c0-.66.54-1.2 1.2-1.2z"/>
    <path d="m24.22 36.4c0.66 0 1.2 0.54 1.2 1.2s-0.54 1.2-1.2 1.2h-1.98v-4.8h1.98c0.66 0 1.2 0.54 1.2 1.2s-0.54 1.2-1.2 1.2zh-2.04"/>
   </g>
   <path d="M27 34v4.2c0 .36.24.6.6.6h.18M17.62 36.82c0-.66.54-1.2 1.2-1.2s1.2.54 1.2 1.2v.78c0 .66-.54 1.2-1.2 1.2s-1.2-.54-1.2-1.2zM29.36 36.82c0-.66.54-1.2 1.2-1.2s1.2.54 1.2 1.2v.78c0 .66-.54 1.2-1.2 1.2s-1.2-.54-1.2-1.2zM16.04 35.62c0-.9-.72-1.62-1.62-1.62s-1.62.72-1.62 1.62v1.62c0 .9.72 1.56 1.62 1.56s1.62-.72 1.62-1.56h-1.62"/>
  </g>
  <path d="m11.5 42.5 25-0.04211"/>
 </g>
</svg>
