<svg viewBox="0 0 48 48" xmlns="http://www.w3.org/2000/svg"><g fill="none" stroke="#000" stroke-linecap="round" stroke-linejoin="round"><path d="M27.477 24.052a9 9 0 01-7.245 8.828 9 9 0 01-10.069-5.384 9 9 0 013.315-10.927 9 9 0 0111.364 1.119" paint-order="stroke fill markers" stroke-width="1"/><path d="M27.477 24.052h-7.5m9-9.748h9.546" stroke-width="1"/><path d="M36.352 30.699a3 3 0 01-3 3 3 3 0 01-3-3 3 3 0 013-3 3 3 0 013 3z" paint-order="stroke fill markers" stroke-width="1"/></g><path d="M7.5 5.5h33c1.108 0 2 .892 2 2v33c0 1.108-.892 2-2 2h-33c-1.108 0-2-.892-2-2v-33c0-1.108.892-2 2-2z" fill="none" stroke="#000" stroke-linecap="round" stroke-linejoin="round" paint-order="stroke fill markers"/></svg>