<svg version="1.1" viewBox="0 0 48 48" xml:space="preserve" xmlns="http://www.w3.org/2000/svg"><g fill="none" stroke="#000" stroke-linecap="round" stroke-linejoin="round"><path d="m21.833 43.228-2.6177 1.7326-1.6067-2.6968-2.9376 1.1067-0.96632-2.9867-3.1102 0.42526-0.27748-3.1269-3.1269-0.27749 0.42526-3.1102-2.9867-0.96632 1.1067-2.9376-2.6968-1.6067 1.7326-2.6177-2.2717-2.1665 2.2717-2.1665-1.7326-2.6177 2.6968-1.6067-1.1067-2.9376 2.9867-0.96632-0.42526-3.1102 3.1269-0.27748 0.27749-3.1269 3.1102 0.42526 0.96632-2.9867 2.9376 1.1067 1.6067-2.6968 2.6177 1.7326 2.1665-2.2717 2.1665 2.2717 2.6177-1.7326 1.6067 2.6968 2.9376-1.1067 0.96632 2.9867 3.1102-0.42526 0.27748 3.1269 3.1269 0.27749-0.42526 3.1102 2.9867 0.96632-1.1067 2.9376 2.6968 1.6067-1.7326 2.6177 2.2717 2.1665-2.2717 2.1665 1.7326 2.6177-2.6968 1.6067 1.1067 2.9376-2.9867 0.96632 0.42526 3.1102-3.1269 0.27748-0.27749 3.1269-3.1102-0.42526-0.96632 2.9867-2.9376-1.1067-1.6067 2.6968-2.6177-1.7326" style="paint-order:stroke fill markers"/><g stroke-width="1px"><path d="M 21.833488,43.040832 C 15,36 10,33 9.5,27 9,21 18,15.5 24,24"/><path d="m26.167 43.041c6.8335-7.0408 11.833-10.041 12.333-16.041s-8.5-11.5-14.5-3"/><path d="m21.833 43.041c1-0.5 3.333-0.5 4.333 0"/><path d="m21.833 43.228c0 3.028 4.333 3.028 4.333 0"/><path d="m24 24v18.666"/></g><circle cx="28.5" cy="30" r="2" style="paint-order:stroke fill markers"/><circle cx="19.5" cy="30" r="2" style="paint-order:stroke fill markers"/></g><circle cx="20.25" cy="30" r=".75" fill="#000" style="paint-order:stroke fill markers"/><circle cx="29.25" cy="30" r=".75" fill="#000" style="paint-order:stroke fill markers"/></svg>
