<svg version="1.1" viewBox="0 0 48 48" xml:space="preserve" xmlns="http://www.w3.org/2000/svg"><defs><style>.a{fill:none;stroke:#000;stroke-linecap:round;stroke-linejoin:round;}</style></defs><g fill="none" stroke="#000"><g stroke-linecap="round" stroke-linejoin="round"><g><path d="m9.1341 28.009c-0.90133 2.1782 1.6408 4.1341 1.6513 4.1666-0.44784-1.3137-0.92117-2.3742-0.05068-3.2924"/><path d="m29.568 27.814c0.90133 2.1782-1.5505 4.1861-1.5611 4.2186 0.44784-1.3137 0.92117-2.3742 0.05068-3.2924"/><path d="m28.683 19.571c-0.36971-3.24e-4 -1.8482 0.74188-2.8499 1.14 0.20043-3.0246 0.12863-3.0183-2.3822-1.5123-0.66954-2.8996-0.74854-2.891-2.6642-0.78393-0.72055-1.3223-1.0997-1.9842-1.4558-1.9885h1e-5c-0.35074-0.0037-0.68636 0.63059-1.3108 1.8726-1.89-2.0787-1.9867-2.1039-2.6379 0.71024-0.03044 0.01272-0.06088 0.02571-0.09123 0.0388-2.3806-1.427-2.5036-1.4382-2.3229 1.3512-0.05782 0.04288-0.11557 0.08631-0.17312 0.13047-2.4395-0.96636-2.545-0.90547-1.9277 1.772-0.02886 0.03128-0.05791 0.06237-0.08668 0.09404-2.4864-0.67175-2.5559-0.57082-1.6286 2.0526-0.039816 0.05708-0.079261 0.11513-0.11883 0.17298-2.8024-0.29957-2.86-0.24484-1.4353 2.3662-0.00742 0.0129-0.014107 0.02524-0.021068 0.03824-1.1481 0.54886-1.5282 1.2178-2.0723 2.1158-0.042229 1.7809 1.8639 3.3157 4.6046 5.0599-0.94161-1.7452-2.4141-2.6298-2.6966-4.7944 0.41374-0.7787 1.1173-1.0477 1.7214-1.398 0.74087 0.43238 1.4864 0.81677 2.236 1.1528m1.4632 0.59247c5.4778 1.9822 11.153 1.402 16.818-1.8928 0.60576 0.35246 1.3135 0.62049 1.7289 1.4023-0.28251 2.1646-1.7552 3.0491-2.6968 4.7943 3.2383-0.8682 4.5968-4.0523 4.5546-5.8332"/><path d="m20.482 28.548s-0.9895 0.78004-2.1579-0.04631"/><path d="m13.453 32.996c-0.38185 0.76684-0.23216 1.7485 0.38517 2.5257 0.69832 0.87772 1.8421 1.3072 2.8315 1.0633l-0.95524-2.3065 2.4649 0.19709c-0.0799-1.0267-0.84064-1.9915-1.8832-2.3882-0.64124-0.24284-1.3174-0.24184-1.8782 0.0028"/><path d="m29.14 20.009-2.4445-4.3199 9.0659-5.0937 6.7346 12.006-9.0659 5.0937"/><path d="m29.628 25.49c0.657 0.0503 1.3455-0.20945 1.8902-0.71306 0.82248-0.76263 1.1644-1.9357 0.84639-2.9038l-2.2268 0.78032-0.50976-2.135c-0.58464 0.38165-1.5178 1.3885-1.7198 2.0668-0.2657 0.89804-0.06868 1.807 0.5143 2.3725"/></g><path d="m28.422 24.958 1.2055 0.53223"/><path d="m25.059 27.194c1.4646 0.66666 2.8133 0.2573 3.9662-1.9702"/><path d="m13.453 32.996 0.96494-0.90578"/><path d="m13.935 32.543c-1.3733-1.3837-1.8621-4.0435-1.2808-5.5"/></g><path d="m11.37 29.162 1.4632 0.59247"/></g><ellipse cx="17.241" cy="26.61" rx=".69609" ry=".69609" fill="#000" style="paint-order:stroke fill markers"/><ellipse cx="21.638" cy="26.61" rx=".69609" ry=".69609" fill="#000" style="paint-order:stroke fill markers"/><g fill="none" stroke="#000"><path d="m31.471 25.165 1.7665 3.0597" stroke-width="1px"/><g stroke-linecap="round" stroke-linejoin="round"><path d="m29.673 17.009 5.3629-3.0963" stroke-width="1px"/><path d="m34.798 23.96 3.2986-1.9044" stroke-width="1px"/><path d="m32.059 19.794 0.87475-0.81756-0.04044-1.1966 1.1966 0.04044 0.81756-0.87476 0.81756 0.87475 1.1966-0.04044-0.04044 1.1966 0.87475 0.81756" style="paint-order:stroke fill markers"/></g><path d="m32.059 19.794c2.2279 1.1306 4.104 1.0521 5.697-1.1e-5" stroke-width="1px"/></g></svg>
