<svg version="1.1" viewBox="0 0 48 48" xml:space="preserve" xmlns="http://www.w3.org/2000/svg"><g fill="none" stroke="#000" stroke-linecap="round" stroke-linejoin="round"><path d="m27.162 19.5h10.338l-13.5 23-3.92e-4 -13m-3.162-0.99997h-10.338l13.5-23v13" stroke-width="1px"/><circle cx="24" cy="24" r="5.5" style="paint-order:stroke fill markers"/><circle cx="24" cy="24" r="5.5" style="paint-order:stroke fill markers"/><path transform="scale(-1)" d="m-36.227-21.651a12.5 12.5 0 0 1 8.3642-14.487" style="paint-order:stroke fill markers"/><path transform="scale(-1)" d="m-24-11.75a12.5 12.5 0 0 1-11.506-7.6159" style="paint-order:stroke fill markers"/><path d="m24 40.5a16.5 16.5 0 0 1-16.484-15.78 16.5 16.5 0 0 1 15.046-17.157" style="paint-order:stroke fill markers"/><path transform="scale(-1)" d="m-24-7.5a16.5 16.5 0 0 1-16.484-15.78 16.5 16.5 0 0 1 15.046-17.157" style="paint-order:stroke fill markers"/><path d="m11.773 26.349a12.5 12.5 0 0 1 8.3642-14.487" style="paint-order:stroke fill markers"/><path d="m24 36.25a12.5 12.5 0 0 1-11.506-7.6159" style="paint-order:stroke fill markers"/></g></svg>
