<svg version="1.1" viewBox="0 0 48 48" xml:space="preserve" xmlns="http://www.w3.org/2000/svg"><g fill="none" stroke="#000" stroke-linecap="round" stroke-linejoin="round"><path d="m19.988 9.0281 1.6152-6.0281h4.7929l1.6152 6.0281" stroke-width="1px"/><path d="m9.0281 28.012a15.5 15.5 0 0 0 1.5485 3.7383" style="paint-order:stroke fill markers"/><g stroke-width="1px"><path d="m19.988 38.972 1.6152 6.0282h4.7929l1.6152-6.0282"/><path d="m9.0282 28.012-6.0282-1.6152v-4.7929l6.0282-1.6152"/><path d="m39.236 28.012 6.0282-1.6152v-4.7929l-6.0282-1.6152"/><path d="m31.75 10.573 5.4047-3.1204 3.3891 3.3891-3.1204 5.4047"/></g><g><path d="m31.75 10.573a15.5 15.5 0 0 0-3.7383-1.5484" style="paint-order:stroke fill markers"/><path d="m38.972 19.985a15.5 15.5 0 0 0-1.5484-3.7383" style="paint-order:stroke fill markers"/><path d="m37.424 31.747a15.5 15.5 0 0 0 1.5484-3.7383" style="paint-order:stroke fill markers"/></g><path d="m16.25 10.576a15.5 15.5 0 0 1 3.7383-1.5484" style="paint-order:stroke fill markers"/><path d="m16.25 37.424a15.5 15.5 0 0 0 3.7383 1.5484" style="paint-order:stroke fill markers"/><path d="m9.0283 19.988a15.5 15.5 0 0 1 1.5484-3.7383" style="paint-order:stroke fill markers"/><path d="m10.576 31.75a15.5 15.5 0 0 1-1.5484-3.7383" style="paint-order:stroke fill markers"/><g stroke-width="1px"><path d="m10.577 31.747-3.1204 5.4047 3.3891 3.3891 5.4047-3.1204"/><path d="m10.577 16.25-3.1204-5.4047 3.3891-3.3891 5.4047 3.1204"/><path d="m31.937 37.607 5.4047 3.1204 3.3891-3.3891-3.1204-5.4047"/></g><path d="m28.012 38.969a15.5 15.5 0 0 0 3.7383-1.5484" style="paint-order:stroke fill markers"/><path d="m24.296 13-7 22h10" stroke-width="1px"/><path d="m24.296 13h6.4091l-5.4091 17h3.5909l-1.5909 5" stroke-width="1px"/></g></svg>
