<svg viewBox="0 0 48 48" xmlns="http://www.w3.org/2000/svg"><g fill="none" stroke="#000"><g stroke-linecap="round" stroke-linejoin="round"><path d="M5.5 21.5v8l6 6M5.5 21.5l6 5M11.5 26.5v9M11.5 26.5L42 27M11.5 35.5h31M42.5 35.5L42 27M40 26.967V12.5H13v14.049"/></g><path d="M42 27l-2-1.5M5.5 21.5H13"/><g stroke-linecap="round" stroke-linejoin="round"><path class="prefix__cls-2" stroke-width="1" d="M15 24.6v-3.95l2 4 2-4v4"/><path class="prefix__cls-2" d="M21 22.65h1M26 22.65h1"/></g></g><g fill="#000"><circle class="prefix__cls-7" cx="24" cy="20.25" r=".75"/><circle class="prefix__cls-7" cx="37" cy="15" r=".75"/><circle class="prefix__cls-7" cx="34" cy="15" r=".75"/></g><g fill="none" stroke="#000" stroke-linecap="round" stroke-linejoin="round"><path class="prefix__cls-2" d="M24 21.95v2.7M31 23.5c0 .55-.45 1-1 1s-1-.45-1-1v-.65c0-.55.45-1 1-1s1 .45 1 1M31 24.5v-2.7M33 22.65h1M36 22.825c0-.55.45-1 1-1s1 .45 1 1v.65c0 .55-.45 1-1 1s-1-.45-1-1M36 24.475v-4"/><path d="M33 17c1.059 1.059 3.94 1.06 5 0M15 14.5h10M15 16.5h6"/></g></svg>