<svg version="1.1" viewBox="0 0 48 48" xml:space="preserve" xmlns="http://www.w3.org/2000/svg"><g fill="none" stroke="#000" stroke-width="1px"><path d="m13.077 42.519 0.89359-7.1449c-2.0781-2.2686-1.9568-6.3728 0-8.6239-3.4772-3.9169-1.9959-10.842 4.3725-10.823 1.39-1.8149 3.4069-3.3315 5.6568-3.4268" stroke-linecap="round" stroke-linejoin="round"/><path d="m19.68 14.47c0-4.2773-1.3138-5.9848-2.929-5.9848s-2.1289 5.1576-1.5624 8.1156"/><path d="m28.32 14.47c0-4.2773 1.3138-5.9848 2.929-5.9848s2.1289 5.1576 1.5624 8.1156"/></g><g fill="none" stroke="#000" stroke-linecap="round" stroke-linejoin="round"><ellipse cx="24" cy="28.25" rx="4.5" ry="3.5" style="paint-order:stroke fill markers"/><g stroke-width="1px"><path d="m24 28.25v1"/><path d="m24 28.25 0.84345-0.84345"/><path d="m24 28.25-0.84345-0.84345"/></g></g><circle cx="17.75" cy="22.75" r=".75" fill="#000" style="paint-order:stroke fill markers"/><circle cx="30.25" cy="22.75" r=".75" fill="#000" style="paint-order:stroke fill markers"/><path d="m34.923 42.519-0.89359-7.1449c2.0781-2.2686 1.9568-6.3728 0-8.6239 3.4772-3.9169 1.9959-10.842-4.3725-10.823-1.39-1.8149-3.4069-3.3315-5.6568-3.4268" fill="none" stroke="#000" stroke-width="1px"/><circle cx="24" cy="24" r="21.5" fill="none" stroke="#000" stroke-linecap="round" stroke-linejoin="round" style="paint-order:stroke fill markers"/></svg>
