<svg version="1.1" viewBox="0 0 48 48" xml:space="preserve" xmlns="http://www.w3.org/2000/svg"><g fill="none" stroke="#000" stroke-linecap="round" stroke-linejoin="round"><path transform="matrix(1.0013 0 0 1.0267 -.02404 -1.7083)" d="m24 45-8.2004-3.9717-8.2181-3.935-2.0077-8.8876-2.0473-8.8786 5.6969-7.111 5.6651-7.1364 9.1116 0.020346 9.1116-0.020347 5.6651 7.1364 5.6969 7.111-2.0473 8.8786-2.0077 8.8876-8.2181 3.935z" style="paint-order:stroke fill markers"/><g stroke-width="1px"><path d="m12 24.37c0.5-1.5 1-3.8696 1-5.3696 0.5-7.5 4.5-12 9-12h2.5"/><path d="m34.5 25.475c-0.5-1.5-1-4.9749-1-6.4749-0.5-7.5-4.5-12-9-12"/><path d="m22.5 32s0.75-9.0673-6.5-9c-7.25 0.06728-6.5 9-6.5 9z"/><path d="m24 35.5c0-6 1.5-10.5 6-10.5h2"/><path d="m38 35.5c0-6-1.5-10.5-6-10.5"/><path d="m16.5 12.5c1.5-1 2.5-1 4 0"/><path d="m26 12.5c1.5-1 2.5-1 4 0"/><path d="m22.5 17.097c0.50556-0.28054 1-0.29254 1.5 0s0.5 0.90324 0.5 0.90324-0.75 1-1.25 1-1.2504-1-1.2504-1-0.0052-0.62271 0.5004-0.90324z"/><path d="m23.25 20c1 1.5 1.5 2 2.25 0.5"/><path d="m23.25 20c-1 1.5-1.5 2-2.25 0.5"/></g><circle cx="18.5" cy="15" r="1.5" style="paint-order:stroke fill markers"/><path d="m26.75 27.875c0.5-0.5 1.5-0.5 2 0" stroke-width="1px"/><circle cx="27.75" cy="30" r="1" style="paint-order:stroke fill markers"/><path d="m33.25 27.875c0.5-0.5 1.5-0.5 2 0" stroke-width="1px"/><circle cx="34.25" cy="30" r="1" style="paint-order:stroke fill markers"/><path d="m11.75 26.573c0.5-0.5 1.5-0.5 2 0" stroke-width="1px"/><circle cx="12.75" cy="28.698" r="1" style="paint-order:stroke fill markers"/><path d="m18.25 26.573c0.5-0.5 1.5-0.5 2 0" stroke-width="1px"/><circle cx="19.25" cy="28.698" r="1" style="paint-order:stroke fill markers"/><circle cx="28" cy="15" r="1.5" style="paint-order:stroke fill markers"/><g stroke-width="1px"><path d="m23.25 20v-1"/><path d="m30.24 31.202c0.50556-0.28054 1-0.29254 1.5 0s0.5 0.653 0.5 0.653-0.75 0.75-1.25 0.75-1.2504-0.75-1.2504-0.75-0.0052-0.37246 0.5004-0.653z"/><path d="m14.75 30.855s-0.0052-0.37246 0.5004-0.653c0.50556-0.28054 1-0.29254 1.5 0s0.5 0.653 0.5 0.653-0.75 1.1453-1.25 1.1453-1.2504-1.1453-1.2504-1.1453z"/><path d="m30.99 32.605c1 1.5 1.2499 2 1.9999 0.5"/><path d="m30.99 32.605c-1 1.5-1.2501 2-2.0001 0.5"/><path d="m25.5 20.5v-1"/><path d="m21 20.5v-1"/><path d="m27 18.5 4.5 0.5"/><path d="m27 20 5 0.99993"/><path d="M 19.5,18.5 15,19"/><path d="m19.5 20-5 0.99993"/><path d="m34.5 32.5h1.5"/><path d="m34.5 34 1.5 0.25"/><path d="m27.48 32.5h-1.5002"/><path d="m27.48 34-1.5002 0.25"/><path d="m18.5 35.5h19.5"/><path d="m26.883 26h-5.5373"/><path d="m8.5 32h15.705"/><path d="m14.5 38h10"/><path d="m22.5 40h6"/><path d="m33.709 21.5h2.7911"/><path d="m34.234 24.5h4.2659"/><path d="m36.413 27.5h4.0868"/></g></g></svg>
