<svg version="1.1" viewBox="0 0 48 48" xml:space="preserve" xmlns="http://www.w3.org/2000/svg"><g stroke="#000"><g fill="none" stroke="#000" stroke-linecap="round"><g stroke-linejoin="round"><path d="m33.932 31.199 0.3504 0.03078c1.0613 0.04829 2.4502-0.17069 3.2654-0.5496 1.7554-0.81466 2.7965-2.1748 1.0657-1.8174l1.68e-4 -6e-6c-3.9493 0.81466-4.2208-0.52251-4.2208-0.52251 4.1699-6.1875 5.913-14.042 4.4087-15.964-4.1039-5.2435-11.208-2.7637-11.326-2.6993l-0.03816 0.00683c-0.78026-0.16197-1.6535-0.25847-2.6349-0.27448-1.787-0.029285-3.1425 0.46849-4.1711 1.2485 0 0-12.673-5.2208-12.083 6.5661 0.12538 2.5076 3.594 18.973 7.7312 14 1.5122-1.8186 2.9732-3.3563 2.9732-3.3563 0.72569 0.48207 1.5944 0.72798 2.5052 0.63965l0.07074-0.06006c-0.02198 0.2258-0.01193 0.44666 0.02834 0.70811-1.0658 1.1908-0.75262 1.3999-2.8832 1.8385-2.1559 0.44431-0.88939 1.2353-0.0625 1.4421 1.0024 0.25069 3.3216 0.60581 4.8887-1.5879l-0.0625 0.2503"/><path d="m23.969 30.061c-0.10874 3.8877 0.02732 7.8024 0.40772 8.7539 0.38063 0.95143 1.1952 2.802 3.9963 2.2019 2.3401-0.5017 3.1916-1.4726 3.5611-3.6156 0.27212-1.5767 0.79675-5.9556 0.86403-6.8527"/><path d="m20.612 10.571s-12.681-5.1832-12.092 6.6037c0.12538 2.5076 3.5942 18.974 7.7314 14 1.5118-1.8188 2.8791-3.2454 2.8791-3.2454"/><path d="m27.461 9.6254c-0.43896 0.13763 7.0542-2.7393 11.313 2.7022 1.5042 1.9223-0.23891 9.7764-4.4087 15.964"/></g><path d="m34.365 28.292s0.27173 1.3376 4.2212 0.52235c1.7304-0.35739 0.68903 1.0029-1.066 1.818-1.4403 0.66846-4.6695 0.83978-4.7222-0.08393-0.13575-2.3833 1.6996-1.6592 1.5671-2.2564-0.11973-0.53782-0.9405-1.0657-1.4834-2.3819-0.47398-1.1489-6.5005-9.9594 1.6713-8.6509 0.29937-0.06195-2.1313-7.773-9.779-7.8984-7.646-0.12539-7.3951 9.4029-7.3951 9.4029" stroke-linejoin="round"/><g stroke-linejoin="round"><path d="m21.829 29.107c-1.066 1.1907-0.75246 1.3998-2.8832 1.8386-2.1559 0.44439-0.88923 1.2353-0.06257 1.4419 1.0024 0.25085 3.3216 0.60597 4.8887-1.5882 0.4772-0.66807-0.0028-1.7341-0.65833-2.0058-0.31672-0.1312-0.74022-0.2956-1.2845 0.31358z"/><path d="m21.759 29.086c-0.1074-0.70011 0.23004-1.5332 0.59167-2.5079 0.54346-1.4624 1.7974-2.925 0.79431-7.5639-0.74768-3.4569-5.7625-0.71942-5.7657-0.25069-0.0031 0.46857 0.22682 2.3758-0.08377 4.5968-0.40528 2.8982 1.8441 5.3493 4.4343 5.0985"/><path d="m34.553 17.259c0.06776 1.2557-0.27048 2.1111-0.31311 3.4478-0.06312 1.9431 0.92637 4.167-0.56458 6.3938"/></g></g><circle cx="21.309" cy="18.916" r=".75" fill="#000" stroke-width="0" style="paint-order:stroke fill markers"/><circle cx="32.337" cy="18.59" r=".75" fill="#000" stroke-width="0" style="paint-order:stroke fill markers"/></g></svg>
