<svg version="1.1" viewBox="0 0 48 48" xml:space="preserve" xmlns="http://www.w3.org/2000/svg"><g fill="none" stroke="#000" stroke-linecap="round" stroke-linejoin="round"><path d="M 45.5,24 A 21.5,21.5 0 0 1 24,45.5 21.5,21.5 0 0 1 2.5,24 21.5,21.5 0 0 1 24,2.5 21.5,21.5 0 0 1 45.5,24 Z" style="paint-order:stroke fill markers"/><path d="m25.612 5.5704a18.5 18.5 0 0 1 16.87 19.237 18.5 18.5 0 0 1-18.482 17.693 18.5 18.5 0 0 1-18.482-17.693 18.5 18.5 0 0 1 16.87-19.237" style="paint-order:stroke fill markers"/><g stroke-width="1px"><path d="m42.391 22.993-4.3908 6.0071"/><path d="m38 29v7.093"/><path d="m8 29v4.2869"/><path d="m9 29c0-1.1196 1.0743-4.3681 3.9823-7.0681m2.5176-1.9319c1.9984-1.2522 4.5564-2 7.5-2 3.5481 0 5.3208 0.32272 7.5 2m2.5176 1.9319c3.6557 2.8137 3.9824 5.8153 3.9824 7.0683"/><path d="m41.293 24.496c-1.0921-4.0758-3.6578-7.1926-6.7932-9.0827m-3-1.4243c-5.0157-1.6526-10.567-0.44764-13.5 4.8195"/><path d="m36 20.5c2.5748 2.9973 2.9706 4.5451 2.5 5.5-0.87834-1.2316-1.6859-2.3675-2.5-3"/><path d="m20 21.5s1.9459-1 3-1 3 1 3 1"/><path d="m21.5 23s0.97295-0.5 1.5-0.5 1.5 0.5 1.5 0.5"/><path d="m23 25.5s1.2-1 2-0.5c0.42925 1.602-2 3-2 3s-2.4292-1.398-2-3c0.8-0.5 2 0.5 2 0.5"/><path d="m20.953 25.5s-3.9778 0.96971-3.2998 3.5c0.95457 3.5625 5.3464 0.5 5.3464 0.5"/><path d="m25.047 25.5s3.9778 0.96971 3.2998 3.5c-0.95457 3.5625-5.3464 0.5-5.3464 0.5"/></g><path d="m12.982 21.932a2 2 0 0 1-1.452-2.2791 2 2 0 0 1 2.1439-1.6451 2 2 0 0 1 1.8257 1.9924" style="paint-order:stroke fill markers"/><path transform="scale(-1,1)" d="m-33.018 21.932a2 2 0 0 1-1.452-2.2791 2 2 0 0 1 2.1439-1.6451 2 2 0 0 1 1.8257 1.9924" style="paint-order:stroke fill markers"/></g><path d="m18 25a0.75 0.75 0 0 1-0.75 0.75 0.75 0.75 0 0 1-0.75-0.75 0.75 0.75 0 0 1 0.75-0.75 0.75 0.75 0 0 1 0.75 0.75z" fill="#000" stroke-linecap="round" stroke-linejoin="round" style="paint-order:stroke fill markers"/><path d="m29.5 25a0.75 0.75 0 0 1-0.75 0.75 0.75 0.75 0 0 1-0.75-0.75 0.75 0.75 0 0 1 0.75-0.75 0.75 0.75 0 0 1 0.75 0.75z" fill="#000" stroke-linecap="round" stroke-linejoin="round" style="paint-order:stroke fill markers"/><g fill="none" stroke="#000"><g stroke-width="1px"><path d="m8 29h9.6536"/><path d="m28.346 29h9.6536"/><path d="m23 29.5v-1.5"/></g><g stroke-linecap="round" stroke-linejoin="round" stroke-width="1px"><path d="m35.5 35.5-4-2.04e-4"/><path d="m33.5 34v-3"/><path d="m33.5 31-1 1"/><path d="m33.5 31 1 1"/><path d="m19.5 24c-1.4434-2.5-5-1.9998-5 1 0 1.4285 1.5 2.5 1.5 2.5"/><path d="m26.5 24c1.4434-2.5 5-1.9998 5 1 0 1.4285-1.5 2.5-1.5 2.5"/></g><path d="m19.5 24" stroke-width="1px"/><g stroke-linecap="round"><path d="m13 29c-1.0668-1.0668-1.2507-2.2-0.5-3.5002" stroke-width="1px"/><path d="m33 29c1.0668-1.0668 1.2507-2.2 0.5-3.5002" stroke-width="1px"/><g stroke-linejoin="round"><g stroke-width="1px"><path d="m28.562 11c-4.6576-1.4367-5.5619-2.0239-6.0619-5.3916"/><path d="m25.5 5.6084c0 2.4711 3.8707 3.1894 5.858 3.7391 2.8199 0.75558 3.3214 3.8897 3.142 6.0654"/><path d="m28.562 11c3.1732 0.77403 3.4381 1.8951 2.9381 2.9887"/><path d="m21.905 14.823c2.3212-0.06829 5.3271 0.73467 7.5026 2.9975"/><path d="m26.915 13.337c1.5149 0.8359 2.6599 1.7079 3.3448 2.8825"/></g><path d="m22.5 5.5a1.5 1.5 0 0 1 1.5-1.5 1.5 1.5 0 0 1 1.5 1.5" style="paint-order:stroke fill markers"/></g></g><g stroke-width="1px"><path d="m26.054 7.2039-2.1596 1.7557"/><path d="m29.05 8.7128-0.70099 2.2212"/><path d="m31.552 12.596 2.4137-0.95753"/></g><g stroke-linecap="round" stroke-linejoin="round" stroke-width="1px"><path d="m19.5 30.716c-0.25034 1.1669 0.06586 1.1998 1 2.0337"/><path d="m26.455 30.719c0.25034 1.1669-0.06586 1.1966-1 2.0306"/><path d="m12.982 21.932 2.5176-1.9319"/><path d="m30.5 20 2.5176 1.9319"/></g></g></svg>
