<svg version="1.1" viewBox="0 0 48 48" xml:space="preserve" xmlns="http://www.w3.org/2000/svg"><g fill="none" stroke="#000" stroke-linecap="round" stroke-linejoin="round" stroke-width="1px"><path d="m24.31 19.883c-1.9228-6.7311-4.3382-9.994-8.3102-14.383"/><path d="m24.31 19.883c0.4923-5.8299-0.12908-8.7308-2.2625-13.394"/><path d="m24.31 19.883c-5.3632-10.132-11.654-7.9033-11.81-8.3831"/><path d="m29 42.5c5.25-1.3873 6.5-6.1716 6.5-15.5 0-4.6979-5.6938-7.758-11-7s-8.4024 5.6322-7.5 9c2.8354 11.341 8 13.005 12 13.5z"/><path d="m28.75 40.75c3-1.5 4.25-3.75 5-7.25-3.5 1.5-8.2589 2.7034-12.75 1.5 1.5526 3.6227 6.12 5.75 7.75 5.75"/></g></svg>
