<svg version="1.1" viewBox="0 0 48 48" xml:space="preserve" xmlns="http://www.w3.org/2000/svg"><g fill="none" stroke="#000" stroke-linecap="round" stroke-linejoin="round"><g><path class="st1" d="m41.049 15.449c-1.9714 1.0254-12.197 5.2281-14.37 6.3618-2.1736 1.1337-3.3867 1.1265-5.1053 0.30329-1.7186-0.82321-12.594-5.2137-14.558-6.1524-1.9569-0.93875-2.0003-1.5814-0.079453-2.3324 1.928-0.751 12.745-4.997 15.027-5.8202 2.2891-0.82321 3.0762-0.85209 5.0259-0.1372 1.9425 0.71489 12.103 4.7587 14.031 5.4592 1.928 0.70767 2.0075 1.2926 0.02888 2.318"/><path class="st1" d="m41.049 19.447c-1.9714 1.0254-12.197 5.2281-14.37 6.3618-2.1736 1.1337-3.3867 1.1265-5.1053 0.30329-1.7186-0.82321-12.594-5.2137-14.558-6.1524"/><path d="m5.5217 14.711v3.964"/><path d="m42.5 14.186v3.9892"/><path d="m41.049 19.447s1.4508-0.49971 1.4508-1.2715"/><path d="m7.0159 19.96s-1.4942-0.78478-1.4942-1.2845"/><path class="st1" d="m41.049 22.445c-1.9714 1.0254-12.197 5.2281-14.37 6.3618-2.1736 1.1337-3.3867 1.1265-5.1053 0.30329s-12.594-5.2137-14.558-6.1524c-1.9569-0.93875-2.0003-1.5814-0.079453-2.3324m34.084-0.49826c1.928 0.70767 2.0075 1.2926 0.02888 2.318"/><path class="st1" d="m41.049 26.443c-1.9714 1.0254-12.197 5.2281-14.37 6.3618-2.1736 1.1337-3.3867 1.1265-5.1053 0.30329-1.7186-0.82321-12.594-5.2137-14.558-6.1524"/><path d="m5.5217 21.707v3.964"/><path d="m42.5 21.182v3.9892"/><path d="m41.049 26.443s1.4508-0.49971 1.4508-1.2715"/><path d="m7.0159 26.956s-1.4942-0.78478-1.4942-1.2845"/><path d="m6.9365 20.626 0.97712-0.26182"/><path d="m41.02 20.127-0.89105-0.23876"/><path class="st1" d="m41.027 29.569c-1.9714 1.0254-12.197 5.2281-14.37 6.3618-2.1736 1.1337-3.3867 1.1265-5.1053 0.30329-1.7186-0.82321-12.594-5.2137-14.558-6.1524-1.9569-0.93875-2.0003-1.5814-0.079453-2.3324m34.084-0.49826c1.928 0.70767 2.0075 1.2926 0.02888 2.318"/><path class="st1" d="m41.027 33.567c-1.9714 1.0254-12.197 5.2281-14.37 6.3618-2.1736 1.1337-3.3867 1.1265-5.1053 0.30329-1.7186-0.82321-12.594-5.2137-14.558-6.1524"/><path d="m5.5 28.831v3.964"/><path d="m42.478 28.306v3.9892"/><path d="m41.027 33.567s1.4508-0.49971 1.4508-1.2715"/><path d="m6.9942 34.079s-1.4942-0.78478-1.4942-1.2845"/><path d="m6.9148 27.749 0.97712-0.26182"/><path d="m40.999 27.251-0.89105-0.23876"/></g><path d="m18.475 18.175 5.5469 2.507 3-4-8.5 1.5" stroke-width="1px"/><ellipse cx="15.522" cy="14.682" rx="4.5" ry="1.5" style="paint-order:stroke fill markers"/><g stroke-width="1px"><path d="m27.022 14.682 5.5-2 5 2-5.5 2.5z"/><path d="m32.522 12.682v4.2727"/><path d="m24.522 14.182 0.75-1.75 3.5-0.25-2.25-1v-2l-2 1-3-1 1 2-2.5 1 3.5 0.5z"/></g></g></svg>
