<svg version="1.1" viewBox="0 0 48 48" xml:space="preserve" xmlns="http://www.w3.org/2000/svg"><g fill="none" stroke="#000" stroke-linecap="round" stroke-linejoin="round"><path transform="rotate(-45)" d="m-2.5164 17.872a4.5 4.5 0 0 1-1.787-5.0463 4.5 4.5 0 0 1 4.3034-3.1843 4.5 4.5 0 0 1 4.3034 3.1843 4.5 4.5 0 0 1-1.787 5.0463" style="paint-order:stroke fill markers"/><path transform="rotate(-45)" d="m-11 21.775c0-0.59243 0.34869-1.1294 0.8899-1.3703s1.6138 0.2556 1.6138 0.2556" style="paint-order:stroke fill markers"/><path d="m23.175 7.619c-0.41891-0.41891-1.0451-0.55202-1.5982-0.33971-0.55308 0.21231-0.96039 1.3219-0.96039 1.3219" style="paint-order:stroke fill markers"/><g><path transform="rotate(-45)" d="m-9.5 26.275a1.5 1.5 0 0 1-1.0607-0.43934 1.5 1.5 0 0 1-0.43934-1.0607" style="paint-order:stroke fill markers"/><path transform="rotate(-45)" d="m11 24.775a1.5 1.5 0 0 1-1.5 1.5" style="paint-order:stroke fill markers"/><g stroke-width="1px"><path d="m7.619 23.175 2.1213 2.1213"/><path d="m11.862 25.297 13.435-13.435"/><path d="m25.297 9.7403-2.1213-2.1213"/><path d="m8.6011 20.617 5.1279-3.3527"/><path d="m20.617 8.6011-3.3527 5.1279"/></g><path d="m19.993 25.65c-1.5669-1.5669-1.5669-4.0899 0-5.6569 1.5669-1.5669 4.0899-1.5669 5.6569 0l4.2426 4.2426c1.5669 1.5669 1.5669 4.0899 0 5.6569" style="paint-order:stroke fill markers"/><path d="m35.196 29.539c1.5669 1.5669 1.5669 4.0899 0 5.6569s-4.0899 1.5669-5.6569 0l-4.2426-4.2426c-1.5669-1.5669-1.5669-4.0899 0-5.6569" style="paint-order:stroke fill markers"/><g stroke-width="1px"><path d="m19.993 25.65 2.1213 2.1213"/><path d="m33.075 27.418 2.1213 2.1213"/><path d="m33.428 39.792 1.4142 1.4142c0.70711 0.70711 6.7175 1.7678 7.4246 1.0607s-0.35355-6.7175-1.0607-7.4246l-1.4142-1.4142"/><path d="m33.428 39.792 2.4749-2.4749"/><path d="m37.317 35.903 2.4749-2.4749"/></g><path transform="rotate(-45)" d="m1 51.775a1 1 0 0 1-0.5 0.86603 1 1 0 0 1-1 0 1 1 0 0 1-0.5-0.86603" style="paint-order:stroke fill markers"/><path d="m17.264 13.729-2.8761-2.8767" stroke-width="1px"/><path d="m13.729 17.264-2.8767-2.8761" stroke-width="1px"/></g></g></svg>
