<svg version="1.1" viewBox="0 0 48 48" xml:space="preserve" xmlns="http://www.w3.org/2000/svg"><g fill="none" stroke="#000" stroke-linecap="round" stroke-linejoin="round"><g stroke="#000" stroke-width="1px"><path d="m5.5 29v-8l17 9.815"/><path d="m22.5 38.815v-8"/><path d="m5.5 29 17 9.815"/><path d="m42.5 29v-8l-17 9.815"/><path d="m25.5 38.815v-8"/><path d="m42.5 29-17 9.815"/><path d="m40.928 18.093-6.9282 4-8.5-4.9075"/><path d="m25.5 9.185v8"/><path d="m40.928 18.093-15.428-8.9075"/><path d="m7.2321 18 6.9282 4 8.3397-4.815"/><path d="m22.5 9.185v8"/><path d="m7.2321 18 15.268-8.815"/><path d="m24 20.247 6.5003 3.753"/><path d="m24 20.247-6.5003 3.753"/><path d="m24 27.753 6.5003-3.753"/><path d="m24 27.753-6.5003-3.753"/></g></g></svg>
