<svg version="1.1" viewBox="0 0 48 48" xmlns="http://www.w3.org/2000/svg">
 <g fill="none" stroke="#000">
  <path class="st0" d="m33.975 19.061c3.1437 7.183 3.1437 11.691 0 13.517-4.7126 2.7339-17.001 3.571-20.542-0.63809-2.3592-2.8041-2.3592-7.0952 0-12.879 2.4002-3.9515 5.8074-5.9244 10.221-5.9244 4.4199 0 7.8622 1.9787 10.321 5.9244z"/>
  <path class="st0" d="m38.963 16.592c4.7155 10.775 4.7155 17.536 0 20.276-7.0689 4.1008-25.501 5.3565-30.814-0.95715-3.5389-4.2062-3.5389-10.643 0-19.319 3.6003-5.9273 8.711-8.8866 15.332-8.8866 6.6299 0 11.793 2.968 15.481 8.8866z"/>
  <path class="st0" d="m28.986 21.531c2.2605 5.165 1.0959 6.1219 0 6.7586-2.3563 1.3669-7.607 1.2191-10.271-0.31905-1.3961-0.80604-1.8362-1.9379 0-6.4395 1.2001-1.9758 2.9037-2.9622 5.1107-2.9622 2.21 0 3.9311 0.98935 5.1605 2.9622z"/>
 </g>
</svg>
