<svg version="1.1" viewBox="0 0 48 48" xmlns="http://www.w3.org/2000/svg">
 <g fill="none" stroke="#000" stroke-linecap="round" stroke-linejoin="round">
  <path d="m22.211 22.5c-0.59102-1.4687-2.0259-2.5-3.7109-2.5h-9c-1.6851 0-3.1199 1.0313-3.7109 2.5-0.18621 0.46273-0.28906 0.96908-0.28906 1.5s0.10285 1.0373 0.28906 1.5c0.59102 1.4687 2.0259 2.5 3.7109 2.5h9c1.6851 0 3.1199-1.0313 3.7109-2.5" style="paint-order:stroke fill markers"/>
  <path d="m25.789 22.5c0.59102-1.4687 2.0259-2.5 3.7109-2.5h9c1.6851 0 3.1199 1.0313 3.7109 2.5 0.18621 0.46273 0.28906 0.96908 0.28906 1.5s-0.10285 1.0373-0.28906 1.5c-0.59102 1.4687-2.0259 2.5-3.7109 2.5h-9c-1.6851 0-3.1199-1.0313-3.7109-2.5" style="paint-order:stroke fill markers"/>
  <path d="m15.5 24h17" stroke-width="1px"/>
 </g>
</svg>
