<svg version="1.1" viewBox="0 0 48 48" xml:space="preserve" xmlns="http://www.w3.org/2000/svg"><g fill="none" stroke="#000" stroke-linecap="round" stroke-linejoin="round"><path d="m8.7945 39.205a21.502 21.502 0 0 1-1e-7 -30.408" style="paint-order:stroke fill markers"/><path d="m39.205 39.205a21.502 21.502 0 0 0 0-30.408" style="paint-order:stroke fill markers"/><path d="m13.745 34.255a14.501 14.501 0 0 1 0-20.508" style="paint-order:stroke fill markers"/><path d="m33.961 34.255a14.501 14.501 0 0 0 0-20.508" style="paint-order:stroke fill markers"/><g><path d="m33.961 13.747 5.2442-4.9501"/><path d="m33.961 34.255 5.2442 4.9501"/><path d="m8.7945 8.7972 4.9501 4.9501"/><path d="m8.7945 39.205 4.9501-4.9501"/></g><path d="m30.497 24a6.5 6.5 0 0 1-6.5 6.5 6.5 6.5 0 0 1-6.5-6.5 6.5 6.5 0 0 1 6.5-6.5 6.5 6.5 0 0 1 6.5 6.5z" style="paint-order:stroke fill markers"/><path d="m19.497 4.5h9l-4.5 6z"/><path d="m19.497 37.167h9l-4.5 6z"/></g></svg>
