<svg version="1.1" viewBox="0 0 48 48" xmlns="http://www.w3.org/2000/svg">
 <path class="st0" d="m16.666 17.458c-2.0166-3.0213-1.2071-7.1196 1.8143-9.1363 3.0213-2.0166 7.1197-1.2071 9.1363 1.7492l13.777 20.426c2.0166 3.0213 1.2071 7.1196-1.8143 9.1362-3.0213 2.0166-7.1197 1.2071-9.1363-1.7492l-5.9776-8.8688c-0.73727-0.93965-2.3491-0.80955-3.296 0.13733-0.80955 0.80954-1.0047 2.7539-1.2794 4.5031 0 0.26744-0.06501 0.46982-0.06501 0.73726-0.13734 1.142-0.53488 2.219-1.2071 3.2237-2.219 3.296-6.6499 4.1634-9.9459 1.9516-3.296-2.2118-4.1634-6.6498-1.9516-9.9458 1.142-1.6769 2.8912-2.7539 4.7705-3.0936 5.4428-0.80954 6.4475-6.9245 5.4428-8.6014z" fill="none" stroke="#fff" stroke-width="1.000"/>
</svg>
