<svg viewBox="0 0 48 48" xmlns="http://www.w3.org/2000/svg"><g fill="none" stroke="#fff" stroke-linecap="round" stroke-linejoin="round"><path d="M40.08 14.716a18.568 18.568 0 01-6.795 25.365A18.568 18.568 0 017.92 33.284 18.568 18.568 0 0114.717 7.92a18.568 18.568 0 0125.364 6.796z" stroke-width="1px"/><path d="M14.858 32.165c-3.464 2-6.845-4.13-3.5-6.062zM23.054 34.361c1 1.732-2.464 3.732-3.464 2l-1.75-3.031 3.464-2zM16.59 31.165l-3.5-6.062c4.763-2.75 8.825-9.714 9.374-11.763.366-1.366 1.732-1 2.232-.134M16.59 31.165c4.763-2.75 12.825-2.786 14.874-2.237 1.366.366 1.732-1 1.232-1.866l-8-13.856"/><path d="M29.652 16.236a3 3 0 013.374 1.398 3 3 0 01-.476 3.622M29.995 12.383a7 7 0 016.063 3.5 7 7 0 010 7" paint-order="stroke fill markers"/></g></svg>