<svg version="1.1" viewBox="0 0 48 48" xml:space="preserve" xmlns="http://www.w3.org/2000/svg"><defs><style>.a{fill:none;stroke:#fff;stroke-linecap:round;stroke-linejoin:round;}</style></defs><g fill="none" stroke="#fff" stroke-linecap="round" stroke-linejoin="round"><path class="a" transform="rotate(-30)" d="m27.353 32.785a18.568 18.568 0 0 1-18.568 18.568 18.568 18.568 0 0 1-18.568-18.568 18.568 18.568 0 0 1 18.568-18.568 18.568 18.568 0 0 1 18.568 18.568z" stroke-width=".86364"/><g stroke-width="1px"><path d="m14.858 32.165c-3.4641 2-6.8452-4.1308-3.5-6.0622z"/><path d="m23.054 34.361c1 1.7321-2.4641 3.7321-3.4641 2l-1.75-3.0311 3.4641-2.0001z"/><path d="m16.59 31.165-3.4997-6.0624c4.7628-2.7498 8.825-9.7139 9.3741-11.763 0.36602-1.366 1.732-1 2.232-0.13398"/><path d="m16.59 31.165c4.7628-2.7498 12.825-2.7857 14.874-2.2367 1.366 0.36603 1.732-1 1.232-1.866l-8-13.856"/></g><path transform="rotate(-30)" d="m17.561 28.887a3 3 0 0 1 2.2235 2.8978 3 3 0 0 1-2.2235 2.8978" style="paint-order:stroke fill markers"/><path transform="rotate(-30)" d="m19.785 25.722a7 7 0 0 1 3.5 6.0622 7 7 0 0 1-3.5 6.0622" style="paint-order:stroke fill markers"/></g></svg>
