<svg version="1.1" viewBox="0 0 48 48" xml:space="preserve" xmlns="http://www.w3.org/2000/svg"><g fill="none" stroke="#fff" stroke-linecap="round" stroke-linejoin="round"><path d="m21 40.5h-2.5c-2.77 0-7-4.23-7-7v-6m0-6v-7c0-2.77 4.23-7 7-7h19c2.77 0 7 4.23 7 7v19c0 2.77-4.23 7-7 7l-2.5-4.6e-5" style="paint-order:stroke fill markers"/><g stroke-width="1px"><path d="m12.5 24.5c0-1.25-3.75-4-5.75-4s-3.25 2.5-3.25 4 1.25 4 3.25 4 5.75-2.75 5.75-4z"/><path d="m11.5 21.5h13"/><path d="m11.5 27.5h21.5"/><path d="m33 27.5v-11h-8.5v5"/><path d="m35 40.5v-5.9996l-14-3.54e-4v6"/><path d="m27.5 16.5v2.5"/><path d="m30 16.5v1.5"/></g></g></svg>
