<svg version="1.1" viewBox="0 0 48 48" xml:space="preserve" xmlns="http://www.w3.org/2000/svg"><g fill="none" stroke="#fff" stroke-linecap="round" stroke-linejoin="round"><g><path d="m13.541 30.393v-5.8108c0-1.1622 1.1622-2.3243 2.3243-2.3243h16.27c1.1622 0 2.3243 1.1622 2.3243 2.3243v10.459c0 1.1622-1.1622 2.3243-2.3243 2.3243h-11.04"/><path d="m18.189 22.258v-5.2297c0-3.4865 2.3243-5.8108 5.8108-5.8108s5.8108 2.3243 5.8108 5.8108v5.2297"/><path d="m43.625 18.586a20.919 20.919 0 0 1-6.9001 21.556 20.919 20.919 0 0 1-22.476 2.6602" style="paint-order:stroke fill markers"/><path d="m7.3941 37.447a20.919 20.919 0 0 1-3.2783-21.508 20.919 20.919 0 0 1 17.601-12.788 20.919 20.919 0 0 1 19.442 9.7642" style="paint-order:stroke fill markers"/></g><path d="m17.027 38.528a4.6486 4.6486 0 0 1-4.6486 4.6486 4.6486 4.6486 0 0 1-4.6486-4.6486 4.6486 4.6486 0 0 1 4.6486-4.6486 4.6486 4.6486 0 0 1 4.6486 4.6486z" style="paint-order:stroke fill markers"/><path d="m45.5 15.866a2.9054 2.9054 0 0 1-2.9054 2.9054 2.9054 2.9054 0 0 1-2.9054-2.9054 2.9054 2.9054 0 0 1 2.9054-2.9054 2.9054 2.9054 0 0 1 2.9054 2.9054z" style="paint-order:stroke fill markers"/><path d="m40.27 17.609-4.0966 2.9262m-13.768 9.8343-6.5407 4.6719"/></g></svg>
