<svg version="1.1" viewBox="0 0 48 48" xmlns="http://www.w3.org/2000/svg">
 <path class="st0" d="m26.661 5.645c5.0729-0.69374 8.787 1.0735 8.5199 6.4604-0.26715 5.3869-4.4659 9.3076-9.9869 11.013-1.3513 0.41191-2.7171 0.50586-4.1118 0.29629-0.41912-0.1373-0.76599-0.383-1.0261-0.7371-0.19512-0.88162-0.19512-1.7632 0-2.6449 4.1841 0.45526 7.5154-1.1129 9.9868-4.6972 0.88885-1.3513 1.1851-2.8183 0.88163-4.4081-0.57089-1.2357-1.5537-1.8283-2.9339-1.7633-2.7821 0.46249-5.0368 1.8355-6.7567 4.1118-4.0251 5.9112-5.2969 12.379-3.8155 19.389 1.6332 5.5933 5.2102 7.3999 10.724 5.4343 1.4959-0.766 2.8689-1.6982 4.1118-2.7894 1.6693 0.70096 2.1101 1.8789 1.3224 3.5265-4.5743 4.0107-9.6183 4.7406-15.125 2.2041-3.223-2.5798-5.0368-5.9618-5.4342-10.131-0.88162-7.5299 0.97556-14.287 5.5788-20.263 2.2257-2.4714 4.9212-4.1335 8.0646-5.0007z" clip-rule="evenodd" fill="none" stroke="#000" stroke-linecap="round" stroke-linejoin="round"/>
</svg>
