<svg version="1.1" viewBox="0 0 48 48" xmlns="http://www.w3.org/2000/svg">
 <g transform="matrix(1.1112 0 0 1.1112 -2.6686 -2.6674)" fill="none" stroke="#fff" stroke-linecap="round" stroke-linejoin="round" stroke-width=".89997">
  <path d="m28.876 12.227-4.8755-4.8767-4.8768 4.8767h-6.8954v6.8966l-4.8768 4.8767 4.8768 4.8755v6.8966h6.8967l4.8755 4.8767 4.8768-4.8767h6.8967v-6.8966l4.8755-4.8755-4.8768-4.8767m-10.292-6.8966v5.2606l-1.48 1.48-1.48-1.48v-5.2606zm-8.758 2.4012 3.7202 3.7214v2.0916h-2.0929l-3.7202-3.7201zm-4.4942 7.8908h5.2606l1.48 1.4813-1.48 1.48h-5.2606zm18.165 0h5.2606v2.9613h-5.2606l-1.48-1.48zm-11.96 4.9547h2.0929v2.0929l-3.7202 3.7201-2.0929-2.0929zm9.0412 0h2.0929l3.7202 3.7201-2.0929 2.0929-3.7202-3.7201zm-3.4735 1.4385 1.4788 1.48v5.2606h-2.96v-5.2606z" stop-color="#000000" style="paint-order:fill markers stroke"/>
  <path d="m25.48 20.599-1.48 1.3088-1.48-1.3088v1.9205h-1.9205l1.3076 1.4813-1.3089 1.48h1.9218v1.9205l1.48-1.3088 1.48 1.3088v-1.9205h1.9218l-1.3089-1.48 1.3089-1.4813h-1.9218z" stop-color="#000000" style="paint-order:fill markers stroke"/>
  <path d="m28.881 12.232 2.3975 2.3975-3.7202 3.7201v2.0929h2.0929l3.7202-3.7201 2.405 2.405-0.0038-6.9004z" stop-color="#000000" style="paint-order:fill markers stroke"/>
 </g>
</svg>
