<svg version="1.1" viewBox="0 0 48 48" xmlns="http://www.w3.org/2000/svg">
 <path d="m24.081 2.5808c-11.945 0-21.5 9.5555-21.5 21.5s9.5555 21.5 21.5 21.5 21.5-9.5555 21.5-21.5-9.5555-21.5-21.5-21.5zm-18.633 25.8 8.361-5.4945v-0.71667c0-4.3 3.1055-7.6445 7.4055-8.1222h0.95555c2.8667 0 5.4945 1.4333 6.9278 3.8222 0.71667-0.23889 1.4333-0.23889 2.15-0.23889 0.95555 0 1.9111 0 2.8667 0.2389 1.6722 0.47777 3.3445 1.1945 4.7778 2.15-1.4333-0.47777-2.8667-0.71667-4.5389-0.71667-2.8667 0-5.2555 0.95555-6.9278 3.3445-1.6722 2.15-2.6278 4.7778-2.6278 7.6445 0 3.5833-0.95555 6.9278-3.1055 10.033-0.71667 0.95555-1.1945 1.6722-1.9111 2.3889" fill="none" stroke="#fff" stroke-linecap="round" stroke-linejoin="round"/>
 <circle cx="24.611" cy="17.907" r=".86842" fill="#fff" stroke-width="1.1579" style="paint-order:stroke fill markers"/>
</svg>
