<svg version="1.1" viewBox="0 0 48 48" xml:space="preserve" xmlns="http://www.w3.org/2000/svg"><g fill="none" stroke="#fff" stroke-linecap="round" stroke-linejoin="round"><g stroke-width="1px"><path d="m42.5 32.532h-10.179m-1.4995 0h-24.809c-1-3.5 0.738-6.532 4.988-7.532-1.2506-3.2999 3.1523-6.5747 6-3.4681 2-7.5001 13.5-9.0001 16.5 1"/><path d="m35.299 22.732c6 0 8.2007 5.8 7.2007 9.8"/><path d="m33.5 22.532c-1.3397 5.0001-4.3794 4.5001-13 4.5001m0 1.25c8.5 0.06348 11.66-0.75006 10.321 4.25"/><path d="m35.299 22.732c-0.49951 1.7247-1.146 3.7718 0.82525 4.3m0 1.25c-2.5117 0-3.0088 1.75-3.8035 4.25"/></g><g stroke-width="1px"><path d="m20.5 27.032c-7.7871 0-7.8067 1.25 0 1.25"/><path d="m37.124 27.032c3.004 0 2.9952 1.25 0 1.25"/><path d="m36.124 27.032h1"/><path d="m36.124 28.282h1"/></g></g></svg>
