<svg version="1.1" viewBox="0 0 48 48" xml:space="preserve" xmlns="http://www.w3.org/2000/svg"><g stroke="#fff" stroke-linecap="round" stroke-linejoin="round"><path class="st2" d="m9.534 5.5h19.205l9.7041 9.0109v11.066c0 11.324-9.2596 14.248-14.323 16.923-5.5452-2.5541-14.202-5.6363-14.338-16.923z"/><g fill="none"><path d="m22.326 25.767a3.5 3.4999 0 0 1-1.7529-3.937 3.5 3.4999 0 0 1 3.396-2.6532 3.5 3.4999 0 0 1 3.396 2.6532 3.5 3.4999 0 0 1-1.7529 3.937" style="paint-order:stroke fill markers"/><path d="m25.577 25.786 1.4388 7.6025h-6.1006l1.4395-7.6064"/><path d="m20.48 22.948h-10.74"/><path d="m27.459 22.948h11.007"/><path d="m24.121 19.18v-13.68"/><path d="m24.121 33.389v9.1114"/><path d="m28.739 5.5v9.0109"/><path d="m38.443 14.511h-9.7041"/></g></g><style type="text/css">
	.st0{fill:#FFFFFF;}
	.st1{fill:#0087FF;fill-opacity:0.3961;}
	.st2{fill:none;stroke:#0087FF;stroke-width:20.0019;stroke-miterlimit:15.118;}
	.st3{fill:none;stroke:#0087FF;stroke-width:20;stroke-miterlimit:15.118;}
	.st4{fill:#0087FF;}
</style></svg>
