<svg version="1.1" viewBox="0 0 48 48" xmlns="http://www.w3.org/2000/svg">
 <g fill="none" stroke="#fff" stroke-linecap="round" stroke-linejoin="round">
  <path d="m5.5 24.321h25.227c1.6841 0 2.2884-0.27752 3.0833-1.0725-0.83867-1.452-0.35206-5.8145 0.84091-7.0075 1.4576 0.84202 2.6472 2.5788 3.0833 4.2045 1.6213-0.43502 3.3076-0.3386 4.7652 0.50454 0 1.6807-3.922 4.182-5.6061 4.2605-10.999 19.051-31.394 17.107-31.394-0.88962z" stroke-width=".99999"/>
  <g>
   <path d="m7.5 19.321h3v3h-3z" style="paint-order:stroke fill markers"/>
   <path d="m12.5 19.321h3v3h-3z" style="paint-order:stroke fill markers"/>
   <path d="m17.5 19.321h3v3h-3z" style="paint-order:stroke fill markers"/>
   <path d="m22.5 19.321h3v3h-3z" style="paint-order:stroke fill markers"/>
   <path d="m12.5 14.321h3v3h-3z" style="paint-order:stroke fill markers"/>
   <path d="m17.5 14.321h3v3h-3z" style="paint-order:stroke fill markers"/>
   <path d="m22.5 14.321h3v3h-3z" style="paint-order:stroke fill markers"/>
   <path d="m22.5 9.321h3v3h-3z" style="paint-order:stroke fill markers"/>
   <path d="m27.5 19.321h3v3h-3z" style="paint-order:stroke fill markers"/>
  </g>
 </g>
</svg>
