<svg version="1.1" viewBox="0 0 48 48" xmlns="http://www.w3.org/2000/svg">
 <g transform="matrix(1 0 0 .99999 -3.7443e-6 -.91838)" fill="none" stroke="#fff" stroke-linecap="round" stroke-linejoin="round">
  <path d="m5.5 24.678h25.227c1.6841 0 2.2884-0.04596 3.0833-0.84091-0.83867-1.452-0.35206-5.8146 0.84091-7.0076 1.4576 0.84203 2.6472 2.5788 3.0833 4.2046 1.6213-0.43503 3.3076-0.33861 4.7652 0.50455 0 1.6807-3.922 4.1821-5.6061 4.2606-10.999 19.051-31.394 16.876-31.394-1.1212z"/>
  <path d="m9 19.678h2.5v2.5h-2.5zm4.5 0h2.5v2.5h-2.5zm4.5 0h2.5v2.5h-2.5zm4.5 0h2.5v2.5h-2.5zm-9-4.5h2.5v2.5h-2.5zm4.5 0h2.5v2.5h-2.5zm4.5 0h2.5v2.5h-2.5zm0-4.5h2.5v2.5h-2.5zm4.5 9h2.5v2.5h-2.5z" style="paint-order:stroke fill markers"/>
 </g>
</svg>
