<svg version="1.1" viewBox="0 0 48 48" xml:space="preserve" xmlns="http://www.w3.org/2000/svg"><g fill="none" stroke="#fff" stroke-linecap="round" stroke-linejoin="round"><path d="M 45.5,24 A 21.5,21.5 0 0 1 24,45.5 21.5,21.5 0 0 1 2.5,24 21.5,21.5 0 0 1 24,2.5 21.5,21.5 0 0 1 45.5,24 Z" style="paint-order:stroke fill markers"/><g><path class="cls-2" d="m10.8 24h5.4"/><path class="cls-2" d="m18.8 32h-8v-16h8"/><path class="cls-2" d="m23.8 18v12c0 1.2 0.8 2 2 2h0.6"/><path class="cls-2" d="m21.6 21.2h4.4"/></g><path class="cls-2" transform="matrix(2 0 0 2 -498.81 -97.402)" d="m268 59.3-2 5.4-2-5.4" stroke-width=".49999"/></g></svg>
