<svg version="1.1" viewBox="0 0 48 48" xmlns="http://www.w3.org/2000/svg">
 <defs>
  <style>.prefix__cls-1{fill:none;stroke:#fff;stroke-linecap:round;stroke-linejoin:round}</style>
 </defs>
 <g fill="none" stroke="#fff">
  <path d="m10.001 35.5a4.5 5 0 0 1-4.462-4.347 4.5 5 0 0 1 3.297-5.483m1e-3 0a7.5 6.5 0 0 1 7.5-6.5m1 0a8.5 6.5 0 0 1 8.5-6.5m9.163 7.004a9 7 0 0 0-9-7m9 7a7.5 7.5 0 0 1 7.5 7.5m-6.5 8.326c3.59 0 6.5-3.967 6.5-8.386" stroke-linecap="round" stroke-linejoin="round" style="paint-order:stroke fill markers"/>
  <path d="m16.337 19.17h1"/>
  <path d="m18.001 35.5a4.5 5 0 0 1-4.462-4.347 4.5 5 0 0 1 3.297-5.483m1e-3 0a7.5 6.5 0 0 1 7.5-6.5m1 0c0-2.53 1.891-4.724 4.652-5.797" stroke-linecap="round" stroke-linejoin="round" style="paint-order:stroke fill markers"/>
  <path d="m24.337 19.17h1"/>
 </g>
 <path class="prefix__cls-1" d="m23.695 29.921a2.823 2.823 0 0 0 0.024-0.342 2.823 2.823 0 0 0-0.024-0.342l0.74-0.579a0.17 0.17 0 0 0 0.043-0.224l-0.701-1.215a0.17 0.17 0 0 0-0.214-0.075l-0.873 0.352a2.68 2.68 0 0 0-0.591-0.342l-0.132-0.928a0.17 0.17 0 0 0-0.17-0.147h-1.405a0.17 0.17 0 0 0-0.171 0.147l-0.132 0.928a2.625 2.625 0 0 0-0.591 0.342l-0.877-0.352a0.17 0.17 0 0 0-0.214 0.075l-0.7 1.215a0.17 0.17 0 0 0 0.042 0.224l0.739 0.58a2.847 2.847 0 0 0-0.024 0.341 2.823 2.823 0 0 0 0.024 0.342l-0.739 0.58a0.17 0.17 0 0 0-0.042 0.223l0.7 1.215a0.17 0.17 0 0 0 0.214 0.075l0.873-0.352a2.68 2.68 0 0 0 0.592 0.342l0.131 0.928a0.17 0.17 0 0 0 0.171 0.147h1.401a0.17 0.17 0 0 0 0.171-0.147l0.132-0.928a2.625 2.625 0 0 0 0.591-0.342l0.873 0.353a0.17 0.17 0 0 0 0.214-0.076l0.7-1.215a0.17 0.17 0 0 0-0.042-0.224zm-2.603 0.885a1.227 1.227 0 1 1 1.226-1.227 1.225 1.225 0 0 1-1.226 1.227z"/>
 <path class="prefix__cls-1" d="m32.503 24.427a3.529 3.529 0 0 0 0.03-0.427 3.529 3.529 0 0 0-0.03-0.427l0.925-0.725a0.214 0.214 0 0 0 0.053-0.28l-0.875-1.518a0.214 0.214 0 0 0-0.267-0.094l-1.092 0.44a3.35 3.35 0 0 0-0.74-0.428l-0.164-1.16a0.214 0.214 0 0 0-0.213-0.183h-1.756a0.214 0.214 0 0 0-0.214 0.183l-0.164 1.16a3.281 3.281 0 0 0-0.74 0.428l-1.095-0.44a0.214 0.214 0 0 0-0.268 0.094l-0.875 1.518a0.214 0.214 0 0 0 0.053 0.28l0.923 0.725a3.559 3.559 0 0 0-0.03 0.427 3.529 3.529 0 0 0 0.03 0.427l-0.923 0.724a0.214 0.214 0 0 0-0.053 0.28l0.875 1.519a0.214 0.214 0 0 0 0.268 0.094l1.091-0.44a3.35 3.35 0 0 0 0.74 0.427l0.164 1.16a0.214 0.214 0 0 0 0.213 0.184h1.752a0.214 0.214 0 0 0 0.214-0.184l0.164-1.16a3.281 3.281 0 0 0 0.74-0.427l1.09 0.44a0.214 0.214 0 0 0 0.268-0.094l0.876-1.519a0.214 0.214 0 0 0-0.054-0.28zm-3.253 1.107a1.534 1.534 0 1 1 1.53-1.534 1.532 1.532 0 0 1-1.531 1.534z" fill="none" stroke-linecap="round" stroke-linejoin="round"/>
 <path d="M 10.001,35.5 H 36" fill="none" stroke="#fff"/>
</svg>
