<svg version="1.1" viewBox="0 0 48 48" xml:space="preserve" xmlns="http://www.w3.org/2000/svg"><g fill="none" stroke="#fff" stroke-linecap="round"><g stroke-linejoin="round"><rect x="11.5" y="5.5" width="25" height="25" style="paint-order:stroke fill markers"/><path d="m26 17.999a6 6 0 0 1-4.8295 5.8847 6 6 0 0 1-6.7138-3.5886 6 6 0 0 1 2.2099-7.2849 6 6 0 0 1 7.5761 0.74618" style="paint-order:stroke fill markers"/><path d="m26 17.999h-5" stroke-width="1px"/><path d="m27 11.5h6.3645" stroke-width="1px"/><circle cx="29.916" cy="22.43" r="2" style="paint-order:stroke fill markers"/></g><g transform="translate(1.3 2.5)" stroke-linejoin="round"><g transform="matrix(.6 0 0 .6 -36.36 -2.46)" stroke-width="1.6667"><path class="cls-2" d="m118 59.4v6c0 1.1-0.9 2-2 2-0.6 0-1.1-0.2-1.4-0.6"/><path class="cls-2" d="m116 59.3c1.1 0 2 0.9 2 2v1.3c0 1.1-0.9 2-2 2s-2-0.9-2-2v-1.3c0-1.1 0.9-2 2-2z"/></g><g transform="matrix(.6 0 0 .6 -17.1 7.08)" stroke-width="1.6667"><path class="cls-2" d="m66.7 44.7c1.1 0 2 0.9 2 2s-0.9 2-2 2h-3.3v-8h3.3c1.1 0 2 0.9 2 2s-0.9 2-2 2z"/><line class="cls-2" x1="66.7" x2="63.3" y1="44.7" y2="44.7"/></g><g><path class="cls-2" d="m25.7 31.5v4.2c0 0.36 0.24 0.6 0.6 0.6h0.18"/><path class="cls-2" d="m16.32 34.32c0-0.66 0.54-1.2 1.2-1.2s1.2 0.54 1.2 1.2v0.78c0 0.66-0.54 1.2-1.2 1.2s-1.2-0.54-1.2-1.2z"/><path class="cls-2" d="m28.06 34.32c0-0.66 0.54-1.2 1.2-1.2s1.2 0.54 1.2 1.2v0.78c0 0.66-0.54 1.2-1.2 1.2s-1.2-0.54-1.2-1.2z"/><path class="cls-2" d="m14.74 33.12c0-0.9-0.72-1.62-1.62-1.62s-1.62 0.72-1.62 1.62v1.62c0 0.9 0.72 1.56 1.62 1.56s1.62-0.72 1.62-1.56h-1.62"/></g></g><path d="m12 42.5h24" stroke-width="1px"/></g></svg>
