<svg version="1.1" viewBox="0 0 48 48" xml:space="preserve" xmlns="http://www.w3.org/2000/svg"><g fill="none" stroke="#fff" stroke-linecap="round" stroke-linejoin="round"><g><path transform="scale(-1)" d="m-18.288-41.579a18.483 18.483 0 0 1 6.6561 3.8429" style="paint-order:stroke fill markers"/><path d="m18.288 41.579 1.1417 3.9212h9.1399l1.1417-3.9212"/><path d="m5.9205 27.843-2.825 2.9494 4.57 7.9154 3.9667-0.97183"/><path transform="rotate(240)" d="m-27.073-8.7942a18.483 18.483 0 0 1 6.6561 3.8429" style="paint-order:stroke fill markers"/><path d="m11.632 10.264-3.9667-0.97182-4.57 7.9154 2.825 2.9494"/><path d="m29.712 6.4212a18.483 18.483 0 0 1 6.6561 3.8429" style="paint-order:stroke fill markers"/><path d="m29.712 6.4212-1.1417-3.9212h-9.1399l-1.1417 3.9212"/><path d="m42.08 20.157 2.825-2.9494-4.57-7.9154-3.9667 0.97182"/><path transform="rotate(60)" d="m38.496-26.363a18.483 18.483 0 0 1 6.6561 3.8429" style="paint-order:stroke fill markers"/><path d="m36.368 37.736 3.9667 0.97182 4.57-7.9154-2.825-2.9494"/><path transform="scale(-1,1)" d="m-18.288 6.4212a18.483 18.483 0 0 1 6.6561 3.8429" style="paint-order:stroke fill markers"/><path transform="rotate(120)" d="m14.496-50.363a18.483 18.483 0 0 1 6.6561 3.8429" style="paint-order:stroke fill markers"/><path d="m34.825 30.25a12.5 12.5 0 0 1-12.781 6.0961 12.5 12.5 0 0 1-10.271-9.7472 12.5 12.5 0 0 1 5.4188-13.082 12.5 12.5 0 0 1 14.155 0.37067" style="paint-order:stroke fill markers"/><ellipse cx="24" cy="24" rx="2.5" ry="2.5" style="paint-order:stroke fill markers"/></g><path d="m34.825 30.25-8.6602-5" stroke-width="1px"/></g></svg>
