<svg version="1.1" viewBox="0 0 48 48" xml:space="preserve" xmlns="http://www.w3.org/2000/svg"><defs><style>.f{fill:none;stroke:#fff;stroke-linecap:round;stroke-linejoin:round;}</style></defs><path d="m19.5 32.75a0.75 0.75 0 0 1-0.75 0.75 0.75 0.75 0 0 1-0.75-0.75 0.75 0.75 0 0 1 0.75-0.75 0.75 0.75 0 0 1 0.75 0.75z" fill="#fff" stroke-linecap="round" stroke-linejoin="round" style="paint-order:stroke fill markers"/><path d="m21.5 29.25a1.25 1.25 0 0 1-1.25 1.25 1.25 1.25 0 0 1-1.25-1.25 1.25 1.25 0 0 1 1.25-1.25 1.25 1.25 0 0 1 1.25 1.25z" fill="none" stroke="#fff" stroke-linecap="round" stroke-linejoin="round" style="paint-order:stroke fill markers"/><g transform="matrix(.94652 .3445 -.3445 .94652 8.9175 -5.4035)"><path id="b" class="f" d="m27.144 7.6716-2.45e-4 29.309c0.1173 2.928-1.1811 5.3974-4.138 5.5198-2.9569-0.1223-4.2558-2.5918-4.1385-5.5198l2.45e-4 -29.302" stroke-width=".99279"/><path id="d" class="f" d="m18.867 25.073c2.2e-5 -2.7438 2.916-4.7777 4.7213-5.3593s3.5553-5.0657 3.5553-5.0657" stroke-width=".99279"/><path id="e" class="f" d="m18.164 6.4511c0 0.52673 0.24411 0.93906 0.73215 1.2463m8.4653-0.1924c0.31569-0.28049 0.47355-0.63017 0.47355-1.0539 0-1.354-1.6121-1.9511-4.835-1.9511s-4.836 0.59714-4.836 1.9511" stroke-width=".99279"/><path class="f" d="m20.478 7.241c0.45484 0.30466 1.2776 0.46297 2.4673 0.4967 1.3379 0.037922 2.2211-0.10775 2.6505-0.46797" fill="none" stroke="#fff" stroke-linecap="round" stroke-linejoin="round" stroke-width=".99279"/></g><g fill="#fff" stroke-linecap="round" stroke-linejoin="round"><path d="m22 24.25a0.75 0.75 0 0 1-0.75 0.75 0.75 0.75 0 0 1-0.75-0.75 0.75 0.75 0 0 1 0.75-0.75 0.75 0.75 0 0 1 0.75 0.75z" style="paint-order:stroke fill markers"/><path d="m21 35.75a0.75 0.75 0 0 1-0.75 0.75 0.75 0.75 0 0 1-0.75-0.75 0.75 0.75 0 0 1 0.75-0.75 0.75 0.75 0 0 1 0.75 0.75z" style="paint-order:stroke fill markers"/><path d="m24.5 27.25a0.75 0.75 0 0 1-0.75 0.75 0.75 0.75 0 0 1-0.75-0.75 0.75 0.75 0 0 1 0.75-0.75 0.75 0.75 0 0 1 0.75 0.75z" style="paint-order:stroke fill markers"/></g></svg>
