<svg version="1.1" viewBox="0 0 48 48" xml:space="preserve" xmlns="http://www.w3.org/2000/svg"><g fill="none" stroke="#fff" stroke-linecap="round" stroke-linejoin="round"><path d="m24 45.5a21.5 21.5 0 0 1-19.863-13.272 21.5 21.5 0 0 1 4.6606-23.43 21.5 21.5 0 0 1 23.43-4.6606 21.5 21.5 0 0 1 13.272 19.863" style="paint-order:stroke fill markers"/><g stroke-width="2.0px"><path d="m24 11v14h9"/><path d="m41.5 25h4.0002"/><path d="m41.5 24v1"/><path d="m45.5 25v-1"/><path d="m24 41.5v3.9995"/></g><path d="m24 41.5a17.5 17.5 0 0 1-16.168-10.803 17.5 17.5 0 0 1 3.7935-19.071 17.5 17.5 0 0 1 19.071-3.7935 17.5 17.5 0 0 1 10.803 16.168" style="paint-order:stroke fill markers"/></g></svg>
