<svg version="1.1" viewBox="0 0 48 48" xmlns="http://www.w3.org/2000/svg">
 <g fill="none" stroke="#fff">
  <path d="m5.5 21.5v10l6 6m-6-16 6 5m0 0v11m0-11 30.5 0.5m-30.5 10.5h31m0 0-0.5-10.5m-2-0.033v-16.467h-27v16.049" stroke-linecap="round" stroke-linejoin="round"/>
  <path d="m42 27-2-1.5m-34.5-4h7.5"/>
  <path class="prefix__cls-2" d="m15 23.6v-3.95l2 4 2-4v4" stroke-linecap="round" stroke-linejoin="round"/>
  <path class="prefix__cls-2" d="m21 21.65h1m4 0h1" stroke-linecap="round" stroke-linejoin="round"/>
 </g>
 <g fill="#fff">
  <circle class="prefix__cls-7" cx="24" cy="19.25" r=".75"/>
  <circle class="prefix__cls-7" cx="37" cy="13" r=".75"/>
  <circle class="prefix__cls-7" cx="34" cy="13" r=".75"/>
 </g>
 <path class="prefix__cls-2" d="m24 20.95v2.7m7-1.15c0 0.55-0.45 1-1 1s-1-0.45-1-1v-0.65c0-0.55 0.45-1 1-1s1 0.45 1 1m0 1.65v-2.7m2 0.85h1m2 0.175c0-0.55 0.45-1 1-1s1 0.45 1 1v0.65c0 0.55-0.45 1-1 1s-1-0.45-1-1m0 1v-4" fill="none" stroke="#fff" stroke-linecap="round" stroke-linejoin="round"/>
 <path d="m33 15c1.059 1.059 3.94 1.06 5 0m-23-2.5h10m-10 2h6" fill="none" stroke="#fff" stroke-linecap="round" stroke-linejoin="round"/>
</svg>
