<svg version="1.1" viewBox="0 0 48 48" xml:space="preserve" xmlns="http://www.w3.org/2000/svg"><g fill="none" stroke="#fff"><g stroke-linecap="round" stroke-linejoin="round" stroke-width="1px"><path d="m5.5 21.5v8l6 6"/><path d="m5.5 21.5 6 5"/><path d="m11.5 26.5v9"/><path d="m11.5 26.5 30.5 0.5"/><path d="m11.5 35.5h31"/><path d="m42.5 35.5-0.5-8.5"/><path d="m40 26.967v-14.467h-27v14.049"/></g><path d="m42 27-2-1.5" stroke-width="1px"/><path d="m5.5 21.5h7.5" stroke-width="1px"/><g stroke-linecap="round" stroke-linejoin="round"><polyline class="cls-2" transform="matrix(.50001 0 0 .50001 -71.002 .2996)" points="172 48.6 172 40.7 176 48.7 180 40.7 180 48.7" stroke-width="2"/><path class="cls-2" d="m21 22.65h1"/><path class="cls-2" d="m26 22.65h1"/></g></g><g fill="#fff"><circle class="cls-7" cx="24" cy="20.25" r=".75"/><circle class="cls-7" cx="37" cy="15" r=".75"/><circle class="cls-7" cx="34" cy="15" r=".75"/></g><g fill="none" stroke="#fff" stroke-linecap="round" stroke-linejoin="round"><line class="cls-2" x1="24" x2="24" y1="21.95" y2="24.65"/><path class="cls-2" d="m31 23.5c0 0.55-0.45 1-1 1s-1-0.45-1-1v-0.65c0-0.55 0.45-1 1-1s1 0.45 1 1"/><line class="cls-2" x1="31" x2="31" y1="24.5" y2="21.8"/><path class="cls-2" d="m33 22.65h1"/><path class="cls-2" d="m36 22.825c0-0.55 0.45-1 1-1s1 0.45 1 1v0.65c0 0.55-0.45 1-1 1s-1-0.45-1-1"/><line class="cls-2" x1="36" x2="36" y1="24.475" y2="20.475"/><g stroke-width="1px"><path d="m33 17c1.0588 1.0588 3.9403 1.0597 5 0"/><path d="m15 14.5h10"/><path d="m15 16.5h6"/></g></g></svg>
