<svg version="1.1" viewBox="0 0 48 48" xml:space="preserve" xmlns="http://www.w3.org/2000/svg"><g transform="matrix(1 0 0 1 5.8452e-7 2)"><g fill="none" stroke="#fff"><g stroke-linecap="round" stroke-linejoin="round" stroke-width="1px"><path d="m5.5 19.5v8l6 6"/><path d="m5.5 19.5 6 5"/><path d="m11.5 24.5v9"/><path d="M 11.5,24.5 42,25"/><path d="m11.5 33.5h31"/><path d="m42.5 33.5-0.5-8.5"/><path d="m40 24.967v-14.467h-27v14.049"/></g><path d="m42 25-2-1.5" stroke-width="1px"/><path d="m5.5 19.5h7.5" stroke-width="1px"/><g stroke-linecap="round" stroke-linejoin="round"><polyline class="cls-2" transform="matrix(.50001 0 0 .50001 -70.502 -1.7004)" points="172 48.6 172 40.7 176 48.7 180 40.7 180 48.7" stroke-width="2"/><path class="cls-2" d="m21 20.65h1.5"/><path class="cls-2" d="m25.5 20.65h1.5"/></g></g><g fill="#fff"><circle class="cls-7" cx="24" cy="18.25" r=".75"/><circle class="cls-7" cx="37" cy="13" r=".75"/><circle class="cls-7" cx="34" cy="13" r=".75"/></g><g fill="none" stroke="#fff" stroke-linecap="round" stroke-linejoin="round"><line class="cls-2" x1="24" x2="24" y1="19.95" y2="22.65"/><g transform="matrix(.5 0 0 .5 1.5 -9.8499)" stroke-width="2"><path class="cls-2" d="m58 62.7c0 1.1-0.9 2-2 2s-2-0.9-2-2v-1.3c0-1.1 0.9-2 2-2s2 0.9 2 2"/><line class="cls-2" x1="58" x2="58" y1="64.7" y2="59.3"/></g><path class="cls-2" d="m32 20.65h1.5"/><g transform="matrix(.5 0 0 .5 3.5 -9.7999)" stroke-width="2"><path class="cls-2" d="m64 61.3c0-1.1 0.9-2 2-2s2 0.9 2 2v1.3c0 1.1-0.9 2-2 2s-2-0.9-2-2"/><line class="cls-2" x1="64" x2="64" y1="64.7" y2="56.7"/></g></g><g fill="none" stroke="#fff" stroke-linecap="round" stroke-linejoin="round" stroke-width="1px"><path d="m33 15c1.0588 1.0588 3.9403 1.0597 5 0"/><path d="m15 13h10"/><path d="m15 15h6"/></g></g></svg>
