<svg version="1.1" viewBox="0 0 48 48" xml:space="preserve" xmlns="http://www.w3.org/2000/svg"><circle cx="23.75" cy="14.75" r=".75" fill="#fff" style="paint-order:stroke fill markers"/><circle cx="23.75" cy="21.25" r=".75" fill="#fff" style="paint-order:stroke fill markers"/><circle cx="23.75" cy="27.75" r="1.5" fill="none" stroke="#fff" stroke-linecap="round" stroke-linejoin="round" style="paint-order:stroke fill markers"/><g fill="#fff"><circle cx="23.75" cy="34.25" r=".75" style="paint-order:stroke fill markers"/><circle cx="23.75" cy="40.75" r=".75" style="paint-order:stroke fill markers"/><circle cx="23.75" cy="7.25" r=".75" style="paint-order:stroke fill markers"/><circle cx="30.25" cy="14.75" r=".75" style="paint-order:stroke fill markers"/></g><circle cx="30.25" cy="21.25" r="1.5" fill="none" stroke="#fff" stroke-linecap="round" stroke-linejoin="round" style="paint-order:stroke fill markers"/><circle cx="30.25" cy="27.75" r=".75" fill="#fff" style="paint-order:stroke fill markers"/><circle cx="30.25" cy="34.25" r=".75" fill="#fff" style="paint-order:stroke fill markers"/><g fill="none" stroke="#fff" stroke-linecap="round" stroke-linejoin="round"><circle cx="11.25" cy="14.75" r="1.5" style="paint-order:stroke fill markers"/><circle cx="11.25" cy="21.25" r="1.5" style="paint-order:stroke fill markers"/><circle cx="11.25" cy="27.75" r="1.5" style="paint-order:stroke fill markers"/><circle cx="11.25" cy="34.25" r="1.5" style="paint-order:stroke fill markers"/></g><circle cx="17.75" cy="14.75" r=".75" fill="#fff" style="paint-order:stroke fill markers"/><circle cx="17.75" cy="21.25" r="1.5" fill="none" stroke="#fff" stroke-linecap="round" stroke-linejoin="round" style="paint-order:stroke fill markers"/><circle cx="17.75" cy="27.75" r=".75" fill="#fff" style="paint-order:stroke fill markers"/><circle cx="17.75" cy="34.25" r=".75" fill="#fff" style="paint-order:stroke fill markers"/><g fill="none" stroke="#fff" stroke-linecap="round" stroke-linejoin="round"><circle cx="36.75" cy="14.75" r="1.5" style="paint-order:stroke fill markers"/><circle cx="36.75" cy="21.25" r="1.5" style="paint-order:stroke fill markers"/><circle cx="36.75" cy="27.75" r="1.5" style="paint-order:stroke fill markers"/><circle cx="36.75" cy="34.25" r="1.5" style="paint-order:stroke fill markers"/></g></svg>
