<svg version="1.1" viewBox="0 0 48 48" xml:space="preserve" xmlns="http://www.w3.org/2000/svg"><g fill="none" stroke="#fff" stroke-linecap="round" stroke-linejoin="round"><circle cx="24" cy="24" r="21.5" style="paint-order:stroke fill markers"/><circle cx="24" cy="23.945" r="7.5" style="paint-order:stroke fill markers"/><circle cx="24" cy="23.945" r="2" style="paint-order:stroke fill markers"/><path d="m11.5 23.945a12.5 12.5 0 0 1 12.5-12.5" style="paint-order:stroke fill markers"/><path d="m36.5 23.945a12.5 12.5 0 0 1-12.5 12.5" style="paint-order:stroke fill markers"/><path d="m7.8606 20.515a16.5 16.5 0 0 1 16.139-13.069" style="paint-order:stroke fill markers"/><path transform="scale(-1)" d="m-40.139-27.376a16.5 16.5 0 0 1 16.139-13.069" style="paint-order:stroke fill markers"/><path d="m7.5 23.945a16.5 16.5 0 0 1 0.022613-0.86354" style="paint-order:stroke fill markers"/><path transform="scale(-1)" d="m-40.5-23.945a16.5 16.5 0 0 1 0.02261-0.86354" style="paint-order:stroke fill markers"/></g></svg>
