<svg version="1.1" viewBox="0 0 48 48" xml:space="preserve" xmlns="http://www.w3.org/2000/svg"><g fill="none" stroke="#fff" stroke-linecap="round" stroke-linejoin="round"><path transform="matrix(1.0049 0 0 1.0049 -.037079 -.024977)" d="m39.943 33.205-15.943 9.2048-15.943-9.2048 1e-7 -18.41 15.943-9.2048 15.943 9.2048z" stroke-width=".99512" style="paint-order:stroke fill markers"/><path transform="matrix(.37684 0 0 .37684 15.036 15.049)" d="m39.943 33.205-15.943 9.2048-15.943-9.2048 1e-7 -18.41 15.943-9.2048 15.943 9.2048z" stroke-width="2.6536" style="paint-order:stroke fill markers"/><g stroke-width="7.9609"><path transform="matrix(.12561 0 0 .12561 20.985 8.9853)" d="m39.943 33.205-15.943 9.2048-15.943-9.2048 1e-7 -18.41 15.943-9.2048 15.943 9.2048z" style="paint-order:stroke fill markers"/><path transform="matrix(.12561 0 0 .12561 31.378 26.985)" d="m39.943 33.205-15.943 9.2048-15.943-9.2048 1e-7 -18.41 15.943-9.2048 15.943 9.2048z" style="paint-order:stroke fill markers"/><path transform="matrix(.12561 0 0 .12561 10.593 26.985)" d="m39.943 33.205-15.943 9.2048-15.943-9.2048 1e-7 -18.41 15.943-9.2048 15.943 9.2048z" style="paint-order:stroke fill markers"/></g><g><path d="m12.148 25.877a12 12 0 0 1 9.7685-13.695" style="paint-order:stroke fill markers"/><path d="m28.104 12.724a12 12 0 0 1 6.7715 6.2049 12 12 0 0 1 0.40062 9.1757" style="paint-order:stroke fill markers"/><path d="m31.552 33.326a12 12 0 0 1-16.744-1.6123" style="paint-order:stroke fill markers"/></g></g></svg>
