<svg version="1.1" viewBox="0 0 48 48" xml:space="preserve" xmlns="http://www.w3.org/2000/svg"><defs><style>.c{fill:none;stroke:#fff;stroke-linecap:round;stroke-linejoin:round;}</style></defs><g fill="none" stroke="#fff" stroke-linecap="round" stroke-linejoin="round"><path d="m30.089 27.563-6.008 3.469-6.008-3.469v-6.938l6.008-3.468 6.008 3.468z" style="paint-order:stroke fill markers"/><path d="m26.483 10.972-2.4024 1.3872-2.4036-1.3872v-2.7745l2.4036-1.3884 2.4024 1.3884zm12.472 21.6-2.4024 1.3872-2.4036-1.3872v-2.7757l2.4036-1.3872 2.4024 1.3872zm-24.942 0-2.4024 1.3872-2.4036-1.3872v-2.7757l2.4036-1.3872 2.4024 1.3872z" style="paint-order:stroke fill markers"/><path d="m9.8581 26.238a14.4 14.4 0 0 1 11.722-16.434m7.4256 0.65041a14.4 14.4 0 0 1 8.1252 7.4461 14.4 14.4 0 0 1 0.4812 11.011m-4.4688 6.2653a14.4 14.4 0 0 1-20.093-1.9344" style="paint-order:stroke fill markers"/></g><path transform="matrix(.96592 -.25882 .25882 .96593 -5.3943 7.0302)" d="m29.513 3.7357 14.792 14.906-5.5124 20.263-20.305 5.3578-14.792-14.906 5.5124-20.263z" fill="none" stroke="#fff" stroke-linecap="round" stroke-linejoin="round" style="paint-order:stroke fill markers"/></svg>
