<svg version="1.1" viewBox="0 0 48 48" xml:space="preserve" xmlns="http://www.w3.org/2000/svg"><defs><style>.c{fill:none;stroke:#fff;stroke-linecap:round;stroke-linejoin:round;}</style></defs><g fill="none" stroke="#fff" stroke-linecap="round" stroke-linejoin="round"><path d="m30.089 27.563-6.008 3.469-6.008-3.469v-6.938l6.008-3.468 6.008 3.468z" style="paint-order:stroke fill markers"/><path d="m26.483 10.972-2.4024 1.3872-2.4036-1.3872v-2.7745l2.4036-1.3884 2.4024 1.3884zm12.472 21.6-2.4024 1.3872-2.4036-1.3872v-2.7757l2.4036-1.3872 2.4024 1.3872zm-24.942 0-2.4024 1.3872-2.4036-1.3872v-2.7757l2.4036-1.3872 2.4024 1.3872z" style="paint-order:stroke fill markers"/><path d="m9.8581 26.238a14.4 14.4 0 0 1 11.722-16.434m7.4256 0.65041a14.4 14.4 0 0 1 8.1252 7.4461 14.4 14.4 0 0 1 0.4812 11.011m-4.4688 6.2653a14.4 14.4 0 0 1-20.093-1.9344" style="paint-order:stroke fill markers"/></g><path class="c" d="m42.29 32.249v-16.5c0-1.4291-0.7624-2.7496-2-3.4641l-14.289-8.2499c-1.2376-0.71449-2.7624-0.71449-4 0l-14.289 8.2499c-1.2376 0.71449-2 2.035-2 3.4641v16.5c0 1.4291 0.7624 2.7496 2 3.4641l14.289 8.2499c1.2376 0.71449 2.7624 0.71449 4 0l14.289-8.2499c1.2376-0.71449 2-2.035 2-3.4641z"/></svg>
