<svg version="1.1" viewBox="0 0 48 48" xml:space="preserve" xmlns="http://www.w3.org/2000/svg"><defs><style>
      .cls-1 {
        fill: none;
        stroke: #fff;
        stroke-linecap: round;
        stroke-linejoin: round;
      }
    </style></defs><g fill="none" stroke="#fff" stroke-linecap="round" stroke-linejoin="round"><path class="cls-1" d="m9.5 5.5h29c2.216 0 4 1.784 4 4v29c0 2.216-1.784 4-4 4h-29c-2.216 0-4-1.784-4-4v-29c0-2.216 1.784-4 4-4z"/><path class="cls-1" d="m11.5 9.5h25c1.108 0 2 0.892 2 2v25c0 1.108-0.892 2-2 2h-25c-1.108 0-2-0.892-2-2v-25c0-1.108 0.892-2 2-2z"/><path d="m12.5 11.5h23c0.554 0 1 0.446 1 1v5c0 0.554-0.446 1-1 1h-23c-0.554 0-1-0.446-1-1v-5c0-0.554 0.446-1 1-1z" style="paint-order:stroke fill markers"/><path d="m12.5 20.5h23c0.554 0 1 0.446 1 1v5c0 0.554-0.446 1-1 1h-23c-0.554 0-1-0.446-1-1v-5c0-0.554 0.446-1 1-1z" style="paint-order:stroke fill markers"/><path d="m12.5 29.5h23c0.554 0 1 0.446 1 1v5c0 0.554-0.446 1-1 1h-23c-0.554 0-1-0.446-1-1v-5c0-0.554 0.446-1 1-1z" style="paint-order:stroke fill markers"/><path d="m17.5 15a1.5 1.5 0 0 1-1.5 1.5 1.5 1.5 0 0 1-1.5-1.5 1.5 1.5 0 0 1 1.5-1.5 1.5 1.5 0 0 1 1.5 1.5z" style="paint-order:stroke fill markers"/><path d="m17.5 24a1.5 1.5 0 0 1-1.5 1.5 1.5 1.5 0 0 1-1.5-1.5 1.5 1.5 0 0 1 1.5-1.5 1.5 1.5 0 0 1 1.5 1.5z" style="paint-order:stroke fill markers"/><path d="m17.5 33a1.5 1.5 0 0 1-1.5 1.5 1.5 1.5 0 0 1-1.5-1.5 1.5 1.5 0 0 1 1.5-1.5 1.5 1.5 0 0 1 1.5 1.5z" style="paint-order:stroke fill markers"/></g></svg>
