<svg version="1.1" viewBox="0 0 48 48" xml:space="preserve" xmlns="http://www.w3.org/2000/svg"><defs><style>.c{fill:none;stroke:#fff;stroke-linecap:round;stroke-linejoin:round;}</style></defs><g transform="matrix(1 0 0 1 .054869 -7.5228e-6)"><polygon class="c" points="6.1626 13.729 24.003 24.032 41.727 13.803 23.887 3.5"/><polygon class="c" points="6.1626 34.197 24.003 44.5 24.003 24.032 6.1626 13.729"/><polygon class="c" points="24.003 44.5 41.727 34.271 41.727 13.803 24.003 24.032"/></g><path d="m10.152 27.065a1.6 2.4 0 0 1 1.7998-1.1182 1.6 2.4 0 0 1 1.1859 2.3182" fill="none" stroke="#fff" stroke-linecap="round" stroke-linejoin="round" style="paint-order:stroke fill markers"/><path d="m15.938 29.963a1.6 2.4 0 0 1 1.7998-1.1182 1.6 2.4 0 0 1 1.1859 2.3182" fill="none" stroke="#fff" stroke-linecap="round" stroke-linejoin="round" style="paint-order:stroke fill markers"/></svg>
