<svg version="1.1" viewBox="0 0 48 48" xml:space="preserve" xmlns="http://www.w3.org/2000/svg"><g fill="none" stroke="#fff" stroke-linecap="round" stroke-linejoin="round"><path d="m38.5 5.5h-29c-2.216 0-4 1.784-4 4m4 33h29c2.216 0 4-1.784 4-4" style="paint-order:stroke fill markers"/><g stroke-width="1px"><path d="m9.5 42.5h-4v-4"/><path d="m9 31h9.4904"/><path d="m5.5 38.5 12.99-7.5"/><path d="m38.5 5.5h4v4"/><path d="m39 17h-9.4904"/><path d="m42.5 9.5-12.99 7.5"/><path d="m9 17h9.4904"/><path d="m5.5 9.5 12.99 7.5"/><path d="m39 31h-9.4904"/><path d="m42.5 38.5-12.99-7.5"/><path d="m13.5 11.5h21"/><path d="m13.5 36.5h21"/><path d="m5.5 24h13.5"/><path d="m19 24-6.75-3.8971"/><path d="m19 24-6.75 3.8971"/><path d="m42.5 24h-13.5"/><path d="m29 24 6.75-3.8971"/><path d="m29 24 6.75 3.8971"/></g></g></svg>
