<svg version="1.1" viewBox="0 0 48 48" xml:space="preserve" xmlns="http://www.w3.org/2000/svg"><g fill="none" stroke="#fff" stroke-linecap="round" stroke-linejoin="round"><circle cx="24" cy="24" r="21.5" style="paint-order:stroke fill markers"/><path d="m20.75 37h-6.5001v-26h10" stroke-width="1px"/><path d="m22.75 23.098a3.0001 3 0 0 1-1.3978-3.3745 3.0001 3 0 0 1 2.8978-2.2235 3.0001 3 0 0 1 2.8978 2.2235 3.0001 3 0 0 1-1.3978 3.3745" style="paint-order:stroke fill markers"/><path d="m24.25 11a9.5002 9.5 0 0 1 9.3411 7.7688 9.5002 9.5 0 0 1-5.9365 10.6" style="paint-order:stroke fill markers"/><path d="m27.655 29.369-1.9045-6.2709" stroke-width="1px"/><path d="m22.75 23.098-2 13.902" stroke-width="1px"/></g></svg>
