<svg version="1.1" viewBox="0 0 48 48" xml:space="preserve" xmlns="http://www.w3.org/2000/svg"><g fill="none" stroke="#fff" stroke-linecap="round" stroke-linejoin="round"><g><circle cx="24" cy="24" r="21.5" style="paint-order:stroke fill markers"/><path d="m11.728 39.154a19.5 19.5 0 0 1-7.2283-15.154 19.5 19.5 0 0 1 7.2283-15.154" style="paint-order:stroke fill markers"/><path d="m36.272 8.8457a19.5 19.5 0 0 1 7.2283 15.154 19.5 19.5 0 0 1-7.2283 15.154" style="paint-order:stroke fill markers"/></g><g ><circle transform="rotate(-45)" cx="3.5527e-15" cy="33.941" r="4.5" style="paint-order:stroke fill markers"/><path d="m19.75 16.639a8.5 8.5 0 0 1 8.5 0" style="paint-order:stroke fill markers"/><path transform="scale(-1)" d="m-28.25-31.361a8.5 8.5 0 0 1 8.5 0" style="paint-order:stroke fill markers"/><g stroke-width="1px"><path d="m36.272 8.8457-8.0217 7.7931"/><path d="m11.728 8.8457 8.0217 7.7931"/><path d="m36.272 39.154-8.0217-7.7931"/><path d="m12.418 12.418 8.3999 8.3999"/><path d="m27.182 27.182 8.3999 8.3999"/><path d="m11.728 39.154 8.0217-7.7931"/></g></g></g></svg>
