<svg version="1.1" viewBox="0 0 48 48" xml:space="preserve" xmlns="http://www.w3.org/2000/svg"><g fill="none" stroke="#fff" stroke-linecap="round" stroke-linejoin="round"><path d="m24 2.4889c0.2939 0 1.6051 2.2156 1.8976 2.2443 0.29249 0.028807 2.0107-1.8884 2.299-1.831 0.28826 0.057338 1.142 2.4861 1.4233 2.5715 0.28125 0.085316 2.3405-1.4598 2.612-1.3473 0.27153 0.11247 0.6351 2.6611 0.8943 2.7997 0.2592 0.13854 2.5804-0.97513 2.8247-0.81184 0.24438 0.16329 0.10372 2.7339 0.33092 2.9203 0.22719 0.18645 2.721-0.453 2.9288-0.24517 0.20782 0.20782-0.43162 2.7016-0.24517 2.9288 0.18645 0.22719 2.757 0.08655 2.9203 0.33092 0.16329 0.24438-0.95039 2.5655-0.81184 2.8247 0.13854 0.2592 2.6872 0.62277 2.7997 0.8943 0.11247 0.27153-1.4326 2.3308-1.3473 2.612 0.08531 0.28125 2.5141 1.135 2.5715 1.4233 0.05734 0.28826-1.8598 2.0065-1.831 2.299 0.02881 0.29249 2.2443 1.6038 2.2443 1.8976 0 0.2939-2.2156 1.6051-2.2443 1.8976-0.0288 0.29249 1.8884 2.0107 1.831 2.299-0.05734 0.28826-2.4861 1.142-2.5715 1.4233-0.08531 0.28125 1.4598 2.3405 1.3473 2.612-0.11247 0.27153-2.6611 0.6351-2.7997 0.8943-0.13855 0.2592 0.97513 2.5804 0.81184 2.8247-0.16329 0.24438-2.7339 0.10372-2.9203 0.33092-0.18645 0.22719 0.453 2.721 0.24517 2.9288-0.20782 0.20782-2.7016-0.43162-2.9288-0.24517-0.22719 0.18645-0.08655 2.757-0.33092 2.9203-0.24438 0.16329-2.5655-0.95039-2.8247-0.81184-0.2592 0.13854-0.62277 2.6872-0.8943 2.7997-0.27153 0.11247-2.3308-1.4326-2.612-1.3473-0.28125 0.08531-1.135 2.5141-1.4233 2.5715-0.28826 0.05734-2.0065-1.8598-2.299-1.831-0.29249 0.0288-1.6038 2.2443-1.8976 2.2443-0.2939 0-1.6051-2.2156-1.8976-2.2443-0.29249-0.02881-2.0107 1.8884-2.299 1.831-0.28826-0.05734-1.142-2.4861-1.4233-2.5715-0.28125-0.08531-2.3405 1.4598-2.612 1.3473-0.27153-0.11247-0.6351-2.6611-0.8943-2.7997-0.2592-0.13855-2.5804 0.97513-2.8247 0.81184-0.24438-0.16329-0.10372-2.7339-0.33092-2.9203-0.22719-0.18645-2.721 0.453-2.9288 0.24517-0.20782-0.20782 0.43162-2.7016 0.24517-2.9288-0.18645-0.22719-2.757-0.08655-2.9203-0.33092-0.16329-0.24438 0.95039-2.5655 0.81184-2.8247-0.13854-0.2592-2.6872-0.62277-2.7997-0.8943-0.11244-0.27153 1.4326-2.3308 1.3473-2.612-0.08536-0.28121-2.5141-1.135-2.5715-1.4233-0.057338-0.28826 1.8598-2.0065 1.831-2.299-0.028807-0.29249-2.2443-1.6038-2.2443-1.8976 0-0.2939 2.2156-1.6051 2.2443-1.8976 0.028807-0.29249-1.8884-2.0107-1.831-2.299 0.057338-0.28826 2.4861-1.142 2.5715-1.4233 0.085316-0.28125-1.4598-2.3405-1.3473-2.612 0.11247-0.27153 2.6611-0.6351 2.7997-0.8943 0.13854-0.2592-0.97513-2.5804-0.81184-2.8247 0.16329-0.24438 2.7339-0.10372 2.9203-0.33092 0.18645-0.22719-0.453-2.721-0.24517-2.9288 0.20782-0.20782 2.7016 0.43162 2.9288 0.24517 0.22719-0.18645 0.08655-2.757 0.33092-2.9203 0.24438-0.16329 2.5655 0.95039 2.8247 0.81184 0.2592-0.13854 0.62277-2.6872 0.8943-2.7997 0.27153-0.11244 2.3308 1.4326 2.612 1.3473 0.28125-0.085316 1.135-2.5141 1.4233-2.5715 0.28826-0.057338 2.0065 1.8598 2.299 1.831 0.29249-0.028807 1.6038-2.2443 1.8976-2.2443z" style="paint-order:stroke fill markers"/><path d="m20.673 8.3496s2.3262 2.6504 3.3262 2.6504 3.327-2.6504 3.327-2.6504" stroke-width="1px"/><circle cx="24" cy="7" r="1" style="paint-order:stroke fill markers"/><path d="m27.327 8.3496a16 16 0 0 1 10.53 7.6504" style="paint-order:stroke fill markers"/></g><g fill="none" stroke="#fff" stroke-linecap="round" stroke-linejoin="round"><g transform="rotate(72 27.134 23.305)"><path d="m23.5 10.85s2.3262 2.6504 3.3262 2.6504 3.327-2.6504 3.327-2.6504" stroke-width="1px"/><circle cx="26.827" cy="9.5" r="1" style="paint-order:stroke fill markers"/><path d="m30.153 10.85a16 16 0 0 1 3.4353 1.1494" style="paint-order:stroke fill markers"/></g><g transform="rotate(144 25.819 24.791)"><path d="m23.5 10.85s2.3262 2.6504 3.3262 2.6504 3.327-2.6504 3.327-2.6504" stroke-width="1px"/><circle cx="26.827" cy="9.5" r="1" style="paint-order:stroke fill markers"/><path d="m30.153 10.85a16 16 0 0 1 10.53 7.6504" style="paint-order:stroke fill markers"/></g><g transform="rotate(216 25.007 25.709)"><path d="m23.5 10.85s2.3262 2.6504 3.3262 2.6504 3.327-2.6504 3.327-2.6504" stroke-width="1px"/><circle cx="26.827" cy="9.5" r="1" style="paint-order:stroke fill markers"/><path d="m36.175 13.515a16 16 0 0 1 4.5084 4.9852" style="paint-order:stroke fill markers"/></g><g transform="rotate(-72 23.693 27.195)"><path d="m23.5 10.85s2.3262 2.6504 3.3262 2.6504c0.63474 0 1.8041-1.0678 2.5737-1.8479" stroke-width="1px"/><circle cx="26.827" cy="9.5" r="1" style="paint-order:stroke fill markers"/><path d="m33.078 11.772a16 16 0 0 1 7.6047 6.7281" style="paint-order:stroke fill markers"/></g></g><g fill="none" stroke="#fff" stroke-linecap="round" stroke-linejoin="round"><g stroke-width="1px"><path d="m11.927 13.5h16.073"/><path d="m10.692 17h3.3076"/><path d="m20 29h3"/><path d="m37.5 26h2.3745"/><path d="m20 20.5h4c4.5078 0 4.5078-3.5 0-3.5"/><path d="m10.466 32.5h12.534"/><path d="m20 24.5h5"/><path d="m23 32.5v-3.5"/><path d="m14 29v-12"/><path d="m20 20.5v-3.5"/><path d="m20 17h4"/><path d="m31 32.5h6.5265"/><path d="m14 29-5.1952 0.01062"/><path d="m25 24.5c6 0 0.5 8 6 8"/><path d="m20 29v-4.5"/><path d="m28 13.5c5.3903 0 7.8637 6.4824 1.5 8.5 3.0915 0 3.4951 3.5 4 5.5 0.24476 0.96958 0.5 1.5 2 1.5s2-0.56558 2-3"/></g><path transform="rotate(216)" d="m-30.197-20.96a16 16 0 0 1 2.6023 0.78941" style="paint-order:stroke fill markers"/><path transform="matrix(.80902 -.58779 -.58779 -.80902 0 0)" d="m8.6361-49.174a16 16 0 0 1 2.6023 0.78941" style="paint-order:stroke fill markers"/></g></svg>
