<svg viewBox="0 0 48 48" xmlns="http://www.w3.org/2000/svg"><g fill="none" stroke="#fff" stroke-linecap="round" stroke-linejoin="round"><g stroke-width="1"><path d="M17.911 17.834h11.632v14.993H17.911V17.834z" fill="none"/><path d="M31.408 26.415h8.22V42.5h-8.22z" fill="none"/><path d="M8.238 32.82h7.692V17.834H8.238" fill="none"/><path d="M29.6 42.5H8.295v-7.865h21.297m1.872-16.801h8.22v6.73h-8.22v-6.73zm9.637-5.205L24.438 5.653c-.325-.224-2.292-.224-2.69 0L6.692 12.7a1.113 1.113 0 00-.615 1.25c.116.514 2.22 1.989 2.22 1.989h31.397s2.255-1.612 2.255-2.234c0-.528-.361-.954-.846-1.077z" fill="none"/></g><path d="M29.593 34.635V42.5M8.238 17.834V32.82"/></g></svg>