<svg version="1.1" viewBox="0 0 48 48" xml:space="preserve" xmlns="http://www.w3.org/2000/svg"><g fill="none" stroke="#000" stroke-linecap="round" stroke-linejoin="round"><g stroke-width=".97018"><path class="st0" d="m17.911 17.834h11.632v14.993h-11.632v-14.993z"/><path class="st1" d="m31.408 26.415h8.2196v16.085h-8.2196z"/><path class="st2" d="m8.238 32.82h7.6919v-14.986h-7.6919"/><path class="st3" d="m29.6 42.5h-21.305v-7.8653h21.297m1.8724-16.801h8.2196v6.7303h-8.2196v-6.7303zm9.6366-5.205-16.663-6.9761c-0.32532-0.2241-2.2917-0.2241-2.6893 0l-15.058 7.0484c-0.47713 0.2241-0.72292 0.73737-0.61448 1.2506 0.11567 0.51327 2.2194 1.988 2.2194 1.988h31.397s2.2555-1.6121 2.2555-2.2338c0-0.52773-0.36146-0.95425-0.84582-1.0771z"/></g><path d="m29.593 34.635v7.8653" stroke-width=".99962px"/><path d="m8.238 17.834v14.986" stroke-width=".99962px"/></g><style type="text/css">
	.st0{fill:#2FCBBE;}
	.st1{fill:#77FFBD;}
	.st2{fill:#3088D4;}
	.st3{fill:#4C4C4C;}
</style></svg>
