<svg version="1.1" viewBox="0 0 48 48" xml:space="preserve" xmlns="http://www.w3.org/2000/svg"><g fill="none" stroke="#fff" stroke-linecap="round" stroke-linejoin="round"><circle cx="24" cy="24" r="21.5" style="paint-order:stroke fill markers"/><g stroke-width="1px"><path d="m36.933 41.175-4.4475-4.4475c-0.70711-0.70711-2.192-1.7678-3.5355-2.1213-3.5355-0.98995-6.364-0.98995-9.8995 0-1.2728 0.42426-2.8284 1.4142-3.5355 2.1213l-4.4475 4.4475"/><path d="m6.8247 11.067 4.4475 4.4475c0.70711 0.70711 1.7678 2.192 2.1213 3.5355 0.98995 3.5355 0.98995 6.364 0 9.8995-0.42426 1.2728-1.4142 2.8284-2.1213 3.5355l-4.4475 4.4475"/><path d="m11.067 6.8245 4.4475 4.4475c0.70711 0.70711 2.192 1.7678 3.5355 2.1213 3.5355 0.98995 6.364 0.98995 9.8995 0 1.2728-0.42426 2.8284-1.4142 3.5355-2.1213l4.4475-4.4475"/><path d="m41.175 36.932-4.4475-4.4475c-0.70711-0.70711-1.7678-2.192-2.1213-3.5355-0.98995-3.5355-0.98995-6.364 0-9.8995 0.42426-1.2728 1.4142-2.8284 2.1213-3.5355l4.4475-4.4475"/><path d="m8.7972 39.203 9.1924-9.1924"/><path d="m30.01 17.99 9.1924-9.1924"/><path d="m39.203 39.203-9.1924-9.1924"/><path d="m17.99 17.99-9.1924-9.1924"/></g><circle cx="24" cy="24" r="4.5" style="paint-order:stroke fill markers"/></g></svg>
