<svg version="1.1" viewBox="0 0 48 48" xmlns="http://www.w3.org/2000/svg">
 <g transform="matrix(.074219 0 0 .074219 3.9 5)" stroke="#fff" stroke-width="13.474">
  <path class="st0" d="m95.662 224.54v222.2s36.5-24.8 75.9-52.2v-116.9c0-60 18.282-79.424 67.7-115.8l62.9-46.3v-108.8s-98 72-138.8 102c-49.5 36.4-67.7 55.8-67.7 115.8zm114.07 280.73v-222.1c0-60 18.2-79.4 67.6-115.8 40.8-30 138.8-102.1 138.8-102.1v193.8c0 5.6 0 10.9 0.1 16 0.5 53.7 0.7 82.3-54.7 123.8-45.8 34.4-151.8 106.4-151.8 106.4z" clip-rule="evenodd" fill="none" stroke="#fff" stroke-linecap="round" stroke-linejoin="round" stroke-width="13.474"/>
 </g>
</svg>
