<svg version="1.1" viewBox="0 0 48 48" xml:space="preserve" xmlns="http://www.w3.org/2000/svg"><g fill="none" stroke="#fff" stroke-linecap="round" stroke-linejoin="round"><path d="m12.11 34.881a16 16 0 0 1-4.022-12.379" style="paint-order:stroke fill markers"/><path d="m24 2.4889c0.2939 0 1.6051 2.2156 1.8976 2.2443 0.29249 0.028807 2.0107-1.8884 2.299-1.831 0.28826 0.057338 1.142 2.4861 1.4233 2.5715 0.28125 0.085316 2.3405-1.4598 2.612-1.3473 0.27153 0.11247 0.6351 2.6611 0.8943 2.7997 0.2592 0.13854 2.5804-0.97513 2.8247-0.81184 0.24438 0.16329 0.10372 2.7339 0.33092 2.9203 0.22719 0.18645 2.721-0.453 2.9288-0.24517 0.20782 0.20782-0.43162 2.7016-0.24517 2.9288 0.18645 0.22719 2.757 0.08655 2.9203 0.33092 0.16329 0.24438-0.95039 2.5655-0.81184 2.8247 0.13854 0.2592 2.6872 0.62277 2.7997 0.8943 0.11247 0.27153-1.4326 2.3308-1.3473 2.612 0.08531 0.28125 2.5141 1.135 2.5715 1.4233 0.05734 0.28826-1.8598 2.0065-1.831 2.299 0.02881 0.29249 2.2443 1.6038 2.2443 1.8976 0 0.2939-2.2156 1.6051-2.2443 1.8976-0.0288 0.29249 1.8884 2.0107 1.831 2.299-0.05734 0.28826-2.4861 1.142-2.5715 1.4233-0.08531 0.28125 1.4598 2.3405 1.3473 2.612-0.11247 0.27153-2.6611 0.6351-2.7997 0.8943-0.13855 0.2592 0.97513 2.5804 0.81184 2.8247-0.16329 0.24438-2.7339 0.10372-2.9203 0.33092-0.18645 0.22719 0.453 2.721 0.24517 2.9288-0.20782 0.20782-2.7016-0.43162-2.9288-0.24517-0.22719 0.18645-0.08655 2.757-0.33092 2.9203-0.24438 0.16329-2.5655-0.95039-2.8247-0.81184-0.2592 0.13854-0.62277 2.6872-0.8943 2.7997-0.27153 0.11247-2.3308-1.4326-2.612-1.3473-0.28125 0.08531-1.135 2.5141-1.4233 2.5715-0.28826 0.05734-2.0065-1.8598-2.299-1.831-0.29249 0.0288-1.6038 2.2443-1.8976 2.2443-0.2939 0-1.6051-2.2156-1.8976-2.2443-0.29249-0.02881-2.0107 1.8884-2.299 1.831-0.28826-0.05734-1.142-2.4861-1.4233-2.5715-0.28125-0.08531-2.3405 1.4598-2.612 1.3473-0.27153-0.11247-0.6351-2.6611-0.8943-2.7997-0.2592-0.13855-2.5804 0.97513-2.8247 0.81184-0.24438-0.16329-0.10372-2.7339-0.33092-2.9203-0.22719-0.18645-2.721 0.453-2.9288 0.24517-0.20782-0.20782 0.43162-2.7016 0.24517-2.9288-0.18645-0.22719-2.757-0.086553-2.9203-0.33092-0.16329-0.24438 0.95039-2.5655 0.81184-2.8247-0.13854-0.2592-2.6872-0.62277-2.7997-0.8943-0.11244-0.27153 1.4326-2.3308 1.3473-2.612-0.08536-0.28121-2.5141-1.135-2.5715-1.4233-0.057338-0.28826 1.8598-2.0065 1.831-2.299-0.028807-0.29249-2.2443-1.6038-2.2443-1.8976 0-0.2939 2.2156-1.6051 2.2443-1.8976 0.028807-0.29249-1.8884-2.0107-1.831-2.299 0.057338-0.28826 2.4861-1.142 2.5715-1.4233 0.085316-0.28125-1.4598-2.3405-1.3473-2.612 0.11247-0.27153 2.6611-0.6351 2.7997-0.8943 0.13854-0.2592-0.97513-2.5804-0.81184-2.8247 0.16329-0.24438 2.7339-0.10372 2.9203-0.33092 0.18645-0.22719-0.453-2.721-0.24517-2.9288 0.20782-0.20782 2.7016 0.43162 2.9288 0.24517 0.22719-0.18645 0.08655-2.757 0.33092-2.9203 0.24438-0.16329 2.5655 0.95039 2.8247 0.81184 0.2592-0.13854 0.62277-2.6872 0.8943-2.7997 0.27153-0.11244 2.3308 1.4326 2.612 1.3473 0.28125-0.085316 1.135-2.5141 1.4233-2.5715 0.28826-0.057338 2.0065 1.8598 2.299 1.831 0.29249-0.028807 1.6038-2.2443 1.8976-2.2443z" stroke-width="1" style="paint-order:stroke fill markers"/><path d="m39.912 22.327a16 16 0 0 1-4.0222 12.379" style="paint-order:stroke fill markers"/><g stroke-width="1px"><path d="m20.673 8.5245s2.3266 2.5004 3.3266 2.5004 3.3266-2.5004 3.3266-2.5004"/><path d="m37.856 16.175s-1.659 2.9854-1.35 3.9364c0.30902 0.95106 3.406 2.2163 3.406 2.2163"/><path d="m10.144 16.175s1.659 2.9854 1.35 3.9364c-0.30902 0.95106-3.406 2.3911-3.406 2.3911"/><path d="m12.11 34.881s3.3519-0.83012 4.1609-0.24234c0.80902 0.58778 1.2216 3.9782 1.2216 3.9782"/><path d="m30.508 38.617s0.41257-3.3904 1.2216-3.9782 4.1609 0.06752 4.1609 0.06752"/></g><path d="m16 10.318a16 16 0 0 1 4.6734-1.794" style="paint-order:stroke fill markers"/><path d="m32 10.318a16 16 0 0 0-4.6734-1.794" style="paint-order:stroke fill markers"/><path d="m37.856 16.175a16 16 0 0 0-1.4221-2.0691" style="paint-order:stroke fill markers"/><path d="m10.144 16.175a16 16 0 0 1 1.4221-2.0691" style="paint-order:stroke fill markers"/><path d="m20.673 39.65a16 16 0 0 1-3.1812-1.0336" style="paint-order:stroke fill markers"/><path d="m27.531 39.606c1.0936-0.23244 1.9559-0.53487 2.9773-0.9896" style="paint-order:stroke fill markers"/><g stroke-width="1px"><path d="m11.566 14.106 9.1077 25.545"/><path d="m36.434 14.106-8.9031 25.5"/><path d="m16 10.318 8.179 22.4 7.821-22.4"/></g><circle cx="24" cy="7" r="1" style="paint-order:stroke fill markers"/><circle transform="rotate(72)" cx="30.216" cy="-32.329" r="1" style="paint-order:stroke fill markers"/><circle transform="rotate(144)" cx="-5.2416" cy="-50.474" r="1" style="paint-order:stroke fill markers"/><circle transform="rotate(216)" cx="-33.523" cy="-22.31" r="1" style="paint-order:stroke fill markers"/><circle transform="rotate(-72)" cx="-15.409" cy="13.242" r="1" style="paint-order:stroke fill markers"/></g></svg>
