<svg version="1.1" viewBox="0 0 48 48" xml:space="preserve" xmlns="http://www.w3.org/2000/svg"><g fill="none" stroke="#fff" stroke-linecap="round" stroke-linejoin="round"><path d="m23 22.232a2 2 0 0 1-0.93185-2.2497 2 2 0 0 1 1.9319-1.4824 2 2 0 0 1 1.9319 1.4824 2 2 0 0 1-0.93185 2.2497" style="paint-order:stroke fill markers"/><path d="m23 22.232-1.5 6c-0.25836 0.96421 1.4991 1.5 2.4996 1.5s2.7585-0.53677 2.5004-1.5l-1.5-5.9999"/><path d="m8.7972 39.203a21.5 21.5 0 0 1-4.6606-23.43 21.5 21.5 0 0 1 19.863-13.272" style="paint-order:stroke fill markers"/><path d="m37.423 31.75a15.5 15.5 0 0 1-16.115 7.5145 15.5 15.5 0 0 1-12.573-12.573 15.5 15.5 0 0 1 7.5145-16.115" style="paint-order:stroke fill markers"/><path d="m28.012 9.0281a15.5 15.5 0 0 1 10.96 10.96" style="paint-order:stroke fill markers"/><path d="m44.767 18.435a21.5 21.5 0 0 1-3.7103 18.653 21.5 21.5 0 0 1-17.057 8.4116" style="paint-order:stroke fill markers"/><path d="m33.5 24a9.5 9.5 0 0 1-9.5 9.5 9.5 9.5 0 0 1-9.5-9.5 9.5 9.5 0 0 1 9.5-9.5 9.5 9.5 0 0 1 9.5 9.5z" style="paint-order:stroke fill markers"/></g></svg>
