<svg version="1.1" viewBox="0 0 48 48" xmlns="http://www.w3.org/2000/svg">
 <g fill="none" stroke="#fff" stroke-linejoin="round">
  <g stroke-linecap="round">
   <path d="m21.249 40.554-15.179-8.7637s-1.2366-2.7895 0-4.6739l15.179 8.7637 21.251-12.269v4.6739l-21.251 12.269"/>
   <path d="m21.249 26.532 21.251-12.269-15.179-8.763-21.251 12.269z"/>
   <path d="m21.249 26.532 21.251-12.269 2e-6 4.6739-21.251 12.269-15.179-8.7637s-1.0011-2.9073 0-4.6739z"/>
   <path d="m21.249 35.881-15.179-8.7637s-1.2366-2.7895 0-4.6739l15.179 8.7637 21.251-12.269-1e-6 4.6739-21.251 12.269"/>
  </g>
  <path d="m30.862 7.5451-9.1073 5.2582 3.5418 0.29211 0.50597 2.0449 9.1075-5.2582z"/>
 </g>
</svg>
