<svg version="1.1" viewBox="0 0 48 48" xml:space="preserve" xmlns="http://www.w3.org/2000/svg"><g fill="none" stroke="#fff" stroke-linecap="round" stroke-linejoin="round"><circle transform="rotate(45)" cx="33.941" cy="3.5527e-15" r="21.5" style="paint-order:stroke fill markers"/><path d="m35.505 18.832a14.5 14.5 0 0 1-4.397 18.314 14.5 14.5 0 0 1-18.776-1.4771 14.5 14.5 0 0 1-1.4771-18.776 14.5 14.5 0 0 1 18.314-4.397" style="paint-order:stroke fill markers"/><path d="m30.799 12.269a15.5 15.5 0 0 1 4.931 4.931" style="paint-order:stroke fill markers"/><path d="m37.081 10.919c-9.4268-0.2075-15.456 7.8789-15.91 10.253l0.35355 1.0607-1.0607 1.7678 0.70711 0.70711c-2.0671 1.8131-3.5309 3.018-5.968 3.9324-0.68046-1.3681-2.1206-1.9117-3.432-2.018-0.32459-1.2025-2.3542-2.1169-3.6815-1.5609" stroke-width="1px"/><circle transform="rotate(45)" cx="33.941" cy="-7" r="2" style="paint-order:stroke fill markers"/><g stroke-width="1px"><path d="m21.551 20.137c-0.92242-1.181-2.6627-1.0205-5.6828-0.73307 2.2154-2.6701 5.3707-5.3146 8.7387-3.2821"/><path d="m37.081 10.919c0.2075 9.4268-7.8789 15.456-10.253 15.91l-1.0607-0.35355-1.7678 1.0607-0.70711-0.70711c-1.8131 2.0671-3.018 3.5309-3.9324 5.968 1.3681 0.68046 1.9117 2.1206 2.018 3.432 1.2025 0.32459 2.1169 2.3542 1.5609 3.6815"/><path d="m27.863 26.449c1.181 0.92242 1.0205 2.6627 0.73307 5.6828 2.6701-2.2154 5.3146-5.3707 3.2821-8.7387"/></g><g stroke-width="1px"><path d="m13.747 23.017h-2.1213"/><path d="m12.686 24.078v-2.1213"/><path d="m26.176 30.616h-2.1213"/><path d="m25.116 31.676v-2.1213"/></g></g><g fill="#fff"><circle transform="rotate(45)" cx="29.191" cy="4.75" r=".75" style="paint-order:stroke fill markers"/><circle transform="rotate(45)" cx="44.973" cy="4.5289" r=".75" style="paint-order:stroke fill markers"/><circle transform="rotate(45)" cx="41.834" cy="7.6682" r=".75" style="paint-order:stroke fill markers"/><circle transform="rotate(45)" cx="22.941" cy="2" r=".75" style="paint-order:stroke fill markers"/></g><path d="m21.171 24.708 2.1214 2.1214" fill="none" stroke="#fff" stroke-width="1px"/><path d="m21.525 22.233 4.2428 4.2428" fill="none" stroke="#fff" stroke-width="1px"/></svg>
