<svg version="1.1" viewBox="0 0 48 48" xml:space="preserve" xmlns="http://www.w3.org/2000/svg"><g transform="matrix(1 0 0 1 -1.7278e-6 -.31894)" fill="none" stroke="#fff" stroke-linecap="round" stroke-linejoin="round"><path d="m7.5 25.361h22.5c1.5016 0 2.0412-0.04123 2.75-0.75-0.74751-1.2947-0.31366-5.1863 0.75-6.25 1.3007 0.75094 2.3613 2.2992 2.75 3.75 1.4465-0.38758 2.9491-0.302 4.25 0.44908 0 1.4998-3.4983 3.73-5 3.8009-8.566 14.837-28 12.823-28-1z" stroke-width="1"/><g><rect x="9.5" y="21" width="2.5" height="2.5" style="paint-order:stroke fill markers"/><rect x="14" y="21" width="2.5" height="2.5" style="paint-order:stroke fill markers"/><rect x="18.5" y="21" width="2.5" height="2.5" style="paint-order:stroke fill markers"/><rect x="23" y="21" width="2.5" height="2.5" style="paint-order:stroke fill markers"/><rect x="14" y="16.5" width="2.5" height="2.5" style="paint-order:stroke fill markers"/><rect x="18.5" y="16.5" width="2.5" height="2.5" style="paint-order:stroke fill markers"/><rect x="23" y="16.5" width="2.5" height="2.5" style="paint-order:stroke fill markers"/><rect x="23" y="12" width="2.5" height="2.5" style="paint-order:stroke fill markers"/><rect x="27.5" y="21" width="2.5" height="2.5" style="paint-order:stroke fill markers"/></g></g></svg>
