<svg viewBox="0 0 48 48" xmlns="http://www.w3.org/2000/svg"><g fill="none" stroke="#fff" stroke-linecap="round" stroke-linejoin="round"><path d="M7.5 25.042H30c1.502 0 2.041-.041 2.75-.75-.748-1.295-.314-5.186.75-6.25 1.3.751 2.361 2.3 2.75 3.75 1.446-.388 2.95-.302 4.25.45 0 1.499-3.498 3.73-5 3.8-8.566 14.837-28 12.823-28-1z"/><g paint-order="stroke fill markers"><path d="M9.5 20.681H12v2.5H9.5zM14 20.681h2.5v2.5H14zM18.5 20.681H21v2.5h-2.5zM23 20.681h2.5v2.5H23zM14 16.181h2.5v2.5H14zM18.5 16.181H21v2.5h-2.5zM23 16.181h2.5v2.5H23zM23 11.681h2.5v2.5H23zM27.5 20.681H30v2.5h-2.5z"/></g></g></svg>