<svg version="1.1" viewBox="0 0 48 48" xml:space="preserve" xmlns="http://www.w3.org/2000/svg"><g fill="none" stroke="#fff" stroke-linecap="round" stroke-linejoin="round"><path d="m8.1798 19.067 11.862-11.862c0.81271-0.81271 2.1213-0.8127 2.934 0l6.9996 6.9995m-6.9996 23.807c-0.81271 0.81271-2.1213 0.81271-2.934 0l-13.936-13.936c-0.81271-0.81271-0.81271-2.1213 0-2.934" style="paint-order:stroke fill markers"/><path d="m27.377 26.276-2.2005-2.2005c-0.81271-0.81271-0.81271-2.1213 0-2.934l4.401-4.401c0.81271-0.81271 2.1213-0.81271 2.934 0l4.401 4.401c0.81271 0.81271 0.81271 2.1213 0 2.934" style="paint-order:stroke fill markers"/><path d="m27.377 26.276 15.124 15.124"/><path d="m36.912 24.076-5.8681 5.8681"/><path d="m29.536 31.452-6.5603 6.5601"/></g></svg>
