<svg version="1.1" viewBox="0 0 48 48" xml:space="preserve" xmlns="http://www.w3.org/2000/svg"><g fill="none" stroke="#fff" stroke-linecap="round" stroke-linejoin="round"><path d="m5.5 21.179h4l-2-8c6.5 0.5 13.25 9.25 5 19l-1-3c-4-2.25-6-4.25-6-8" stroke-width="1px"/><path d="m42.5 21.179h-3.9999l2-8c-6.4999 0.5-13.25 9.25-4.9999 19l0.99998-3c3.9999-2.25 5.9999-4.25 5.9999-8" stroke-width="1px"/><path d="m12.892 38a11.501 11.501 0 0 1 11.109-8.524 11.501 11.501 0 0 1 11.109 8.524" style="paint-order:stroke fill markers"/><g stroke-width="1px"><path d="m22.5 21.679v-7"/><path d="m25.5 21.679v-7"/><path d="m34 12.679c-2.5-4.5-8.5-3-8.5 2"/><path d="m14 12.679c2.5-4.5 8.5-3 8.5 2"/><path d="m12.892 37.941h22.217"/></g></g><circle cx="22" cy="25.679" r="1.5" fill="#fff" stroke-width="0" style="paint-order:stroke fill markers"/><circle cx="26" cy="25.679" r="1.5" fill="#fff" stroke-width="0" style="paint-order:stroke fill markers"/></svg>
