<svg version="1.1" viewBox="0 0 48 48" xml:space="preserve" xmlns="http://www.w3.org/2000/svg"><g fill="none" stroke="#fff" stroke-linecap="round" stroke-linejoin="round" stroke-width="1px"><path d="m19.987 4.5462c2.5783-1.3771 5.1882-1.4402 7.8342 0"/><path d="m27.821 43.454c-2.5783 1.3771-5.1882 1.4402-7.8342 0"/><path d="m37.871 10.349c2.6832 1.6158 3.7912 3.9701 3.9171 6.7846"/><path d="m41.788 30.867c-0.09877 2.9128-1.3381 5.2102-3.9171 6.7846"/><path d="m9.9367 37.652c-2.6017-1.5826-3.8126-3.8938-3.9171-6.7846"/><path d="m6.0196 17.133c0.079001-2.9957 1.4203-5.2359 3.9171-6.7846l10.05-5.8024"/><path d="m27.821 4.5462 10.051 5.8027"/><path d="m41.788 17.133v13.734"/><path d="m37.871 37.652-10.05 5.8024"/><path d="m19.987 43.454-10.05-5.8024"/><path d="m6.0196 30.867-1e-6 -13.734"/><path d="m27.5 20.5h-7v-8h-5v23h5v-10"/><path d="m27.5 20.5v-8h5v23h-5v-10"/><path d="m20.5 25.5h7"/></g></svg>
