<svg version="1.1" viewBox="0 0 48 48" xml:space="preserve" xmlns="http://www.w3.org/2000/svg"><g fill="none" stroke="#fff" stroke-linecap="round" stroke-linejoin="round"><path d="m24 40.5a16.5 16.5 0 0 1-15.244-10.186 16.5 16.5 0 0 1 3.5768-17.982 16.5 16.5 0 0 1 17.982-3.5768 16.5 16.5 0 0 1 10.186 15.244" style="paint-order:stroke fill markers"/><path d="m24 45.5a21.5 21.5 0 0 1-19.863-13.272 21.5 21.5 0 0 1 4.6606-23.43 21.5 21.5 0 0 1 23.43-4.6606 21.5 21.5 0 0 1 13.272 19.863" style="paint-order:stroke fill markers"/><g stroke-width="1px"><path d="m24 10v15h10"/><path d="m40.5 25h5"/><path d="m40.5 24v1"/><path d="m45.5 25v-1"/><path d="m24 40.5v5"/></g></g></svg>
