<svg version="1.1" viewBox="0 0 48 48" xml:space="preserve" xmlns="http://www.w3.org/2000/svg"><g fill="none" stroke-linecap="round" stroke-linejoin="round"><g stroke="#fff"><g stroke-width="1px"><path d="m9.5 34.5h6"/><path d="m34.5 34.5h4"/><path d="m23 34.5h4"/><path d="m12.5 34.5v-20.318"/><path d="m15 13.5-5.5 1.5"/><path d="m25 34.5c-1.0815-0.62438-1-2-1-2"/><path d="m36.5 34.5c-1.0815-0.62438-1-2-1-2"/><path d="m24 32.5v-11.9"/><path d="m35.5 32.5v-11.9"/><path d="m24 20.6c3-5.1986 11.5-9.9954 11.5 0"/><path d="m12.5 20.6c3-5.1986 11.5-9.9954 11.5 0"/></g><rect x="5.5" y="5.5" width="37" height="37" rx="4" ry="4" style="paint-order:stroke fill markers"/></g></g></svg>
