<svg viewBox="0 0 48 48" xmlns="http://www.w3.org/2000/svg"><g fill="none" stroke="#fff" stroke-linecap="round" stroke-linejoin="round" paint-order="stroke fill markers"><path d="M40.102 33.343l-16.021 9.25-16.022-9.25v-18.5l16.022-9.25 16.02 9.25z"/><path d="M30.088 27.562l-6.008 3.469-6.008-3.469v-6.938l6.008-3.468 6.008 3.468z"/><path d="M26.002 13.156L24 14.312l-2.003-1.156v-2.312L24 9.687l2.002 1.157zm10.393 18l-2.002 1.156-2.003-1.156v-2.313l2.003-1.156 2.002 1.156zm-20.785 0l-2.002 1.156-2.003-1.156v-2.313l2.003-1.156 2.002 1.156z" stroke-width="1"/><path d="M12.148 25.877a12 12 0 019.768-13.695m6.188.542a12 12 0 016.771 6.205 12 12 0 01.401 9.176m-3.724 5.221a12 12 0 01-16.744-1.612"/></g></svg>