<svg version="1.1" viewBox="0 0 48 48" xml:space="preserve" xmlns="http://www.w3.org/2000/svg"><g fill="none" stroke="#fff" stroke-linecap="round" stroke-linejoin="round"><circle cx="24" cy="24" r="19" style="paint-order:stroke fill markers"/><path d="m21.752 2.6178a21.5 21.5 0 0 1 16.21 5.0335 21.5 21.5 0 0 1 7.5074 15.224" style="paint-order:stroke fill markers"/><path d="m45.47 25.125a21.5 21.5 0 0 1-20.345 20.345" style="paint-order:stroke fill markers"/><path d="m22.875 45.471a21.5 21.5 0 0 1-15.224-7.5074 21.5 21.5 0 0 1-5.0335-16.21" style="paint-order:stroke fill markers"/><path d="m35.667 35.667a16.5 16.5 0 0 1-11.667 4.8327 16.5 16.5 0 0 1-11.667-4.8327" style="paint-order:stroke fill markers"/><path d="m8.0621 28.271a16.5 16.5 0 0 1 2.8474-14.315 16.5 16.5 0 0 1 13.09-6.4554" style="paint-order:stroke fill markers"/><path d="m11.875 31a14 14 0 0 1-0.80996-12.358 14 14 0 0 1 9.3108-8.1654" style="paint-order:stroke fill markers"/></g></svg>
