<svg version="1.1" viewBox="0 0 48 48" xml:space="preserve" xmlns="http://www.w3.org/2000/svg"><g fill="none" stroke="#fff" stroke-linecap="round" stroke-linejoin="round" stroke-width="1px"><path d="m24 42.5-14.5-7"/><path d="m38.5 35.5-14.5 7"/><path d="m24 25.5-14.5-7"/><path d="m38.5 18.5-14.5 7"/><path d="m38.5 18.5v17"/><path d="m24 14v28.5"/><path d="m9.5 18.5v17"/><path d="m20.247 14 3.7528-6.5 3.7528 6.5h-7.5056"/><path d="m27.753 12v11.688"/><path d="m12.742 12 3.7528-6.5 3.7528 6.5h-7.5056"/><path d="m12.742 12v8.0649"/><path d="m16.494 12v9.8766"/><path d="m35.258 12-3.7528-6.5-3.7528 6.5h7.5056"/><path d="m35.258 12v8.0649"/><path d="m31.506 12v9.8766"/><path d="m22.123 10.75h3.7528"/><path d="m14.618 8.75h3.7528"/><path d="m29.629 8.75h3.7528"/><path d="m38.5 18.5-3.2416-1.5649"/><path d="m9.5 18.5 3.2416-1.5649"/><path d="m20.247 12v11.688"/></g></svg>
