<svg version="1.1" viewBox="0 0 48 48" xml:space="preserve" xmlns="http://www.w3.org/2000/svg"><g fill="none" stroke="#fff" stroke-linecap="round" stroke-linejoin="round"><g><path transform="rotate(-45)" d="m1.0607 27.88a5 5 0 0 1 4.8296 3.7059 5 5 0 0 1-2.3296 5.6242 5 5 0 0 1-6.0355-0.79459" style="paint-order:stroke fill markers"/><path transform="rotate(-45)" d="m-9.5459 48.487a5 5 0 0 1-4.8296-3.7059 5 5 0 0 1 2.3296-5.6242 5 5 0 0 1 6.0355 0.79459" style="paint-order:stroke fill markers"/><path transform="rotate(-45)" d="m6.0607 43.487a5 5 0 0 1-3.7059 4.8296 5 5 0 0 1-5.6242-2.3296 5 5 0 0 1 0.79459-6.0355" style="paint-order:stroke fill markers"/></g><path d="m27.536 18.964 7.5 7.5" stroke-width="1px"/><path d="m35.036 33.536-7.5 7.5" stroke-width="1px"/><path transform="matrix(-.70711 -.70711 -.70711 .70711 0 0)" d="m-36.416 6.0104a5 5 0 0 1 6.0355-0.79459 5 5 0 0 1 2.3296 5.6242 5 5 0 0 1-4.8296 3.7059" style="paint-order:stroke fill markers"/><g stroke-width="1px"><path d="m20.464 18.964-7.5 7.5"/><path d="m12.964 33.536 7.5 7.5"/><path d="m26.5 30c0.0079-1.1847 0.14147-2.4205 1.0355-3.9645"/><path d="m21.5 30c-0.0079 1.1847-0.14147 2.4205-1.0355 3.9645"/><path d="m24 32.5c1.1847 0.0079 2.4205 0.14147 3.9645 1.0355"/><path d="m24 27.5c-1.1847-0.0079-2.4205-0.14147-3.9645-1.0355"/><path d="m23.5 16c0.23145-4.8034 3.1179-6.9525 7.9996-7"/><path d="m31.5 9c-0.23145 4.8034-3.1179 6.9525-7.9996 7"/><path d="m23.5 16c-0.80548-6.9937-5.7087-9.8361-12-10.5"/><path d="m11.5 5.5c0.80548 6.9937 4.6053 9.2258 10.5 11-0.7984-3.1673-3.1654-5.3894-6.5-7.5"/></g></g></svg>
