<svg version="1.1" viewBox="0 0 48 48" xml:space="preserve" xmlns="http://www.w3.org/2000/svg"><g transform="translate(-.5)"><g fill="none" stroke="#fff" stroke-linecap="round" stroke-linejoin="round"><path d="m18.5 42.5h-6.5c-1.108 0-2-0.892-2-2v-33c0-1.108 0.89201-2.0042 2-2l14.5 0.05492m-4.5 24.945v8.5" style="paint-order:stroke fill markers"/><path d="m22 39a3.5 3.5 0 0 1-3.5 3.5" style="paint-order:stroke fill markers"/><path d="m26.5 5.5549a12.5 12.5 0 0 1 12.5 12.5 12.5 12.5 0 0 1-12.5 12.5" style="paint-order:stroke fill markers"/><path d="m22 30.5 4.5 0.05492" stroke-width="1px"/><path d="m10 26s2-4 4-4 3 2 5 2 3-9 6-9 4.5 3 6 3 5.0587-8 5.0587-8" stroke-width="1px"/></g></g></svg>
