<svg version="1.1" viewBox="0 0 48 48" xml:space="preserve" xmlns="http://www.w3.org/2000/svg"><g fill="none" stroke="#fff" stroke-linecap="round" stroke-linejoin="round"><path d="m24.007 44.493-8.2111-4.0777-8.2288-4.0401-2.0103-9.1249-2.05-9.1157 5.7043-7.3009 5.6725-7.3269 9.1234 0.020889 9.1234-0.02089 5.6725 7.3269 5.7043 7.3009-2.05 9.1157-2.0103 9.1249-8.2288 4.0401z" stroke-width="1" style="paint-order:stroke fill markers"/><g stroke-width="1px"><path d="m12.75 32v-7.9996c0-7.7504 5.7495-12.5 10.25-12.5l2-1.5e-4c4.5-1.5e-4 10.25 4.7501 10.25 12.5v7.9999"/><path d="m17.25 16.854c1.5-1 2.5-1 4 0"/><path d="m26.75 16.854c1.5-1 2.5-1 4 0"/><path d="m23.25 21.952c0.50556-0.28054 1-0.29254 1.5 0s0.5 0.90324 0.5 0.90324-0.75 1-1.25 1-1.2504-1-1.2504-1-0.0052-0.62271 0.5004-0.90324z"/><path d="m24 24.855c1 1.5 1.5 2 2.25 0.5"/><path d="m24 24.855c-1 1.5-1.5 2-2.25 0.5"/></g><circle cx="19.25" cy="19.855" r="1.5" style="paint-order:stroke fill markers"/><circle cx="28.75" cy="19.855" r="1.5" style="paint-order:stroke fill markers"/><g stroke-width="1px"><path d="m24 24.855v-1"/><path d="m26.25 25.355v-1"/><path d="m21.75 25.355v-1"/><path d="m28 23.355 4.5 0.5"/><path d="m28 24.855 5 0.99993"/><path d="m20 23.355-4.5 0.5"/><path d="m20 24.855-5 0.99993"/><path d="m10.75 32h26.5"/></g></g></svg>
