<svg version="1.1" viewBox="0 0 48 48" xml:space="preserve" xmlns="http://www.w3.org/2000/svg"><g fill="none" stroke="#fff" stroke-linecap="round" stroke-linejoin="round"><path class="cls-2" d="m14.625 30.251c1.25 1.5 2.2502 3.2496 4.5002 3.2496h3c2.75 0 5-1.7496 5-4.4996s-2.3716-4.1913-5-5l-3.25-1c-2.6284-0.80874-4.5-2.25-4.5-5s1.75-4.5004 4.5-4.5004h3c2.25 0 3.2498 0.5 4.4998 2.25"/><g stroke-width="1"><path d="m21.5 42.5 19-18-3 15z"/><path d="m30.224 5.5697a3 1.9999 0 0 1 2.6027 0.34514 3 1.9999 0 0 1 1.1737 1.5867" style="paint-order:stroke fill markers"/><path transform="matrix(0,1,1,0,0,0)" d="m39 8a2.9996 3 0 0 1 2.9996 3" style="paint-order:stroke fill markers"/><path d="m35.724 8.0691a3 1.9999 0 0 1 2.6027 0.34514 3 1.9999 0 0 1 1.1737 1.5867" style="paint-order:stroke fill markers"/><path transform="scale(-1,1)" d="m-11 9.4043a6 2.9999 0 0 1 3 2.598" style="paint-order:stroke fill markers"/><path d="m34 7.5009v23.157"/><path d="m11 9.4043 19.224-3.8347"/><path d="m39.5 10.001v15.447"/><path d="m35.724 8.0691-1.7235 0.46181"/><path d="m8 12.002v27.015"/><path d="m11 42 10.512 0.48832"/></g></g></svg>
