<svg version="1.1" viewBox="0 0 48 48" xmlns="http://www.w3.org/2000/svg">
 <g fill="none" stroke="#fff" stroke-linecap="round" stroke-linejoin="round">
  <path class="st0" d="m10.171 32.824c0.0073 0.9852 0.53275 1.8974 1.3793 2.401l11.071 6.3929c0.85385 0.48166 1.9048 0.48166 2.7586 0l11.071-6.3929c0.85385-0.49625 1.3793-1.4085 1.3793-2.401m-6.4659-5.3274-7.1446 4.116c-0.14596 0.07298-0.31381 0.07298-0.45977 0l-7.1446-4.116"/>
  <g>
   <path class="st1" d="m31.364 27.497-7.1446 4.116c-0.14596 0.07298-0.31381 0.07298-0.45977 0l-7.1446-4.116m-5.0647 7.7284 11.071 6.3929c0.85385 0.48166 1.9048 0.48166 2.7586 0l11.071-6.3929c0.85385-0.49625 1.3793-1.4085 1.3793-2.401"/>
   <path class="st2" d="m37.829 11.941c-0.0073-0.98521-0.53275-1.8974-1.3793-2.401l-7.3636-4.2619c-0.56924-0.3357-1.2771-0.3357-1.8391 0-0.56924 0.3284-0.91953 0.94142-0.91953 1.5982v16.128c0.0073 0.9852 0.53275 1.8974 1.3793 2.401l8.7429 5.0647c0.85385 0.49625 1.3793 1.4085 1.3793 2.401v-20.93z"/>
   <path class="st2" d="m10.171 11.894c0.0073-0.98521 0.53275-1.8974 1.3793-2.401l7.3636-4.2619c0.56924-0.3357 1.2771-0.3357 1.8391 0 0.56924 0.3284 0.91954 0.94142 0.91954 1.5982v16.128c-0.0073 0.9852-0.53275 1.8974-1.3793 2.401l-8.7429 5.0647c-0.85385 0.49625-1.3793 1.4085-1.3793 2.401v-20.93z"/>
  </g>
 </g>
</svg>
